<svg width="112" height="151" fill="none" xmlns="http://www.w3.org/2000/svg"><g clip-path="url(#clip0)"><path d="M126.998 106.676c1.939 5.329-.808 11.222-6.138 13.161-5.329 1.94-11.222-.808-13.161-6.137-1.94-5.329.808-11.222 6.137-13.162 5.329-1.94 11.222.808 13.162 6.138z" fill="#FFB610"/><path d="M89.275 84.033a7.646 7.646 0 1111.848-9.667l24.172 29.627-11.848 9.667-24.172-29.627z" fill="#FFB610"/><path d="M89.275 84.033a7.646 7.646 0 1111.848-9.667l20.118 24.659-11.848 9.667-20.118-24.66z" fill="#F89700"/><path d="M43.097 100.84a7.646 7.646 0 00-15.29.21l.54 39.131 15.29-.211-.54-39.13z" fill="#FFB610"/><circle cx="38.474" cy="138.895" r="10.269" transform="rotate(-20 38.474 138.895)" fill="#FFB610"/><path d="M43.097 100.84a7.646 7.646 0 00-15.29.21l.439 31.822 15.29-.211-.439-31.821z" fill="#F89700"/><rect x="17.484" y="95.796" width="93.62" height="15.915" rx="7.958" transform="rotate(-20 17.484 95.796)" fill="#F89700"/><rect x="6.804" y="40.901" width="76.144" height="118.586" rx="15.603" transform="rotate(-20 6.804 40.901)" fill="#FFB610"/><path d="M17.399 75.563a6.767 6.767 0 10-4.63-12.719 6.767 6.767 0 004.63 12.719z" fill="#FFB610"/><circle cx="90.29" cy="41.76" r="6.861" transform="rotate(-20 90.29 41.76)" fill="#FFB610"/><circle cx="42.18" cy="28.569" r="12.319" transform="rotate(-20 42.18 28.57)" fill="#FF9600"/><circle cx="25.682" cy="20.634" r="12.631" transform="rotate(-20 25.682 20.634)" fill="#FF9600"/><path d="M11.93 55.348c-2.945-8.093 1.228-17.041 9.32-19.987l42.202-15.36c8.093-2.945 17.041 1.227 19.987 9.32l13.547 37.22-71.508 26.026L11.93 55.348z" fill="#FFB610"/><path fill-rule="evenodd" clip-rule="evenodd" d="M16.841 37.83l5.697 15.653a9.356 9.356 0 01-5.592 11.992l-1.173.427-3.842-10.557c-2.349-6.453-.171-13.45 4.91-17.514zm51.577-18.773l5.697 15.653a9.356 9.356 0 0011.992 5.592l1.174-.428-3.842-10.557c-2.35-6.453-8.515-10.414-15.021-10.26z" fill="#FFA800"/><rect x="24.621" y="42.089" width="19.024" height="24.95" rx="9.512" transform="rotate(-20 24.621 42.09)" fill="#FFDA00"/><rect x="47.277" y="33.843" width="19.024" height="24.95" rx="9.512" transform="rotate(-20 47.277 33.843)" fill="#FFDA00"/><path fill-rule="evenodd" clip-rule="evenodd" d="M28.023 51.44a3.432 3.432 0 00.152-5.013 4.21 4.21 0 017.363 1.035l1.813 4.983a4.21 4.21 0 11-7.913 2.88l-1.415-3.886z" fill="#E27800"/><path d="M49.586 55.972c-7.777-.859-17.57-1.013-21.531-.016 0 0 1.593 3.223 3.053 5.885s12.28 3.222 12.28 3.222 6.67-4.736 6.198-9.09z" fill="#FFB610"/><path fill-rule="evenodd" clip-rule="evenodd" d="M50.679 43.193a3.432 3.432 0 00.151-5.012 4.21 4.21 0 017.363 1.036l1.813 4.982a4.21 4.21 0 11-7.913 2.88l-1.414-3.886z" fill="#E27800"/><path d="M57.068 57.176a3.743 3.743 0 01-7.034 2.56c-.707-1.942 1.024-7.674 1.17-7.727.147-.054 5.157 3.225 5.864 5.167z" fill="#F78F02"/><path d="M47.531 65.62c1.283 1.397 4.88 3.193 9.553.716" stroke="#F78F02" stroke-width="2.495" stroke-linecap="round" stroke-linejoin="round"/><path d="M97.248 66.765L25.695 92.808l9.926 27.272 71.553-26.043-9.927-27.272z" fill="#F89700"/><path d="M107.177 94.038l-71.552 26.043 13.474 37.021c2.948 8.098 11.902 12.273 20 9.326l42.227-15.37c8.098-2.947 12.273-11.901 9.326-19.999l-13.475-37.02z" fill="#F68B00"/><path d="M60.191 88.792a2.122 2.122 0 00-3.989 1.452l4.217 11.586a2.122 2.122 0 103.99-1.452L60.19 88.792zm12.16-4.422a2.122 2.122 0 00-3.989 1.452l4.218 11.586a2.123 2.123 0 003.988-1.451L72.351 84.37z" fill="#FFDA00"/></g><defs><clipPath id="clip0"><path fill="#fff" d="M0 0h112v151H0z"/></clipPath></defs></svg>