<svg width="112" height="172" fill="none" xmlns="http://www.w3.org/2000/svg"><g clip-path="url(#clip0)"><path fill-rule="evenodd" clip-rule="evenodd" d="M87.152 140.676a3.773 3.773 0 01.926-5.254l17.848-12.497a3.771 3.771 0 015.253.927l31.103 44.419a3.772 3.772 0 01-.926 5.253l-17.848 12.497a3.773 3.773 0 01-5.254-.926l-31.102-44.419z" fill="#744007"/><circle cx="100.136" cy="48.196" transform="rotate(-9 100.136 48.196)" fill="#FFCBA3" r="7.162"/><rect x="78.148" y="3.824" width="48.257" height="70.742" rx="24.128" transform="rotate(81 78.148 3.824)" fill="#3D3D3D"/><rect x="16.563" y="37" width="82.084" height="50.22" rx="24.6" transform="rotate(-9 16.563 37)" fill="#FFCBA3"/><path opacity=".689" fill-rule="evenodd" clip-rule="evenodd" d="M100.89 45.734c-9.502-.5-17.69-7.571-19.238-17.346l-.043-.27c9.105 1.664 16.733 8.408 19.281 17.616z" fill="#C4C4C4"/><path fill-rule="evenodd" clip-rule="evenodd" d="M53.133 133.121l56.747-20.654 5.016 13.781-56.747 20.655-5.016-13.782z" fill="#D8D8D8"/><path fill-rule="evenodd" clip-rule="evenodd" d="M49.765 45.467a8.11 8.11 0 0116.02-2.537l.782 4.942a8.11 8.11 0 11-16.02 2.537l-.782-4.942z" fill="#E99B5F"/><path fill-rule="evenodd" clip-rule="evenodd" d="M50.226 48.37a8.11 8.11 0 0116.02-2.538l.782 4.942a8.11 8.11 0 11-16.02 2.538l-.782-4.943z" fill="#fff"/><path fill-rule="evenodd" clip-rule="evenodd" d="M53.696 48.315a3.652 3.652 0 117.215-1.143l.718 4.53a3.652 3.652 0 11-7.215 1.144l-.718-4.531z" fill="#3D3D3D"/><path fill-rule="evenodd" clip-rule="evenodd" d="M84.753 39.928a8.11 8.11 0 10-16.02 2.537l.783 4.942a8.11 8.11 0 0016.02-2.537l-.783-4.942z" fill="#E99B5F"/><path fill-rule="evenodd" clip-rule="evenodd" d="M85.21 42.826a8.11 8.11 0 00-16.02 2.538l.783 4.942a8.11 8.11 0 1016.02-2.537l-.783-4.943z" fill="#fff"/><circle r="2.847" transform="scale(-1 1) rotate(9 -315.034 -340.738)" fill="#fff"/><path fill-rule="evenodd" clip-rule="evenodd" d="M71.806 45.656A2.933 2.933 0 0074.2 42.07a3.654 3.654 0 013.297 3.069l.718 4.53A3.653 3.653 0 0171 50.813l-.718-4.53a3.67 3.67 0 01-.038-.806 2.92 2.92 0 001.564.18z" fill="#3D3D3D"/><path d="M71.41 62.093a3.463 3.463 0 002.948-3.911c-.266-1.894-4.326-5.89-4.326-5.89s-2.801 4.96-2.535 6.854a3.463 3.463 0 003.913 2.947z" fill="#E99B5F"/><circle cx="79.434" cy="117.854" r="33.473" transform="rotate(-20 79.434 117.854)" fill="#fff"/><path fill-rule="evenodd" clip-rule="evenodd" d="M119.252 149.453a33.332 33.332 0 00-.496-21.435 33.34 33.34 0 00-14.25-17.266l-48.842 17.777a33.334 33.334 0 00.183 22.386 33.324 33.324 0 0013.398 16.739l50.007-18.201z" fill="#744007"/><path fill-rule="evenodd" clip-rule="evenodd" d="M62.743 146.373a3.772 3.772 0 012.255-4.835l20.474-7.452a3.773 3.773 0 014.834 2.254l18.547 50.956a3.773 3.773 0 01-2.255 4.835l-20.474 7.452a3.772 3.772 0 01-4.834-2.255l-18.547-50.955z" fill="#744007"/><path fill-rule="evenodd" clip-rule="evenodd" d="M51.465 78.89l24.569-8.942 5.325 14.63c2.469 6.785-1.03 14.287-7.814 16.756-6.784 2.469-14.286-1.029-16.755-7.813l-5.325-14.63z" fill="#FFCBA3"/><rect x="56.133" y="13.027" width="39.684" height="47.621" rx="19.131" transform="rotate(81 56.133 13.027)" fill="#3D3D3D"/><rect x="125.324" y="145.671" width="54.523" height="17.944" rx="8.972" transform="rotate(-127 125.324 145.671)" fill="#C86902"/><path fill-rule="evenodd" clip-rule="evenodd" d="M44.603 137.583c-5.93-16.293-.547-33.945 12.135-44.354L82.41 163.76h-.003l7.78 21.374-22.52 8.196a2.607 2.607 0 01-3.341-1.558L44.62 137.637l.002-.001-.02-.053zm74.589-27.192c-5.93-16.293-21.4-26.356-37.805-26.177l25.671 70.53.008-.006 6.884 18.914a2.607 2.607 0 003.342 1.558l20.068-7.304a2.609 2.609 0 001.559-3.342l-19.704-54.135-.008.003-.015-.041z" fill="#C86902"/><mask id="a" mask-type="alpha" maskUnits="userSpaceOnUse" x="81" y="84" width="59" height="92"><path fill-rule="evenodd" clip-rule="evenodd" d="M119.192 110.391c-5.93-16.293-21.4-26.356-37.805-26.177l25.671 70.53.008-.006 6.884 18.914a2.607 2.607 0 003.342 1.558l20.068-7.304a2.609 2.609 0 001.559-3.342l-19.704-54.135-.008.003-.015-.041z" fill="#fff"/></mask><g mask="url(#a)"><path fill-rule="evenodd" clip-rule="evenodd" d="M112.09 129.103l25.199.396 1.913 5.257c1.476 4.054-.826 8.505-4.989 9.642l-8.501 2.325a7.38 7.38 0 01-8.881-4.595l-4.741-13.025z" fill="#B45E00"/></g><circle cx="22.745" cy="60.454" transform="rotate(-9 22.745 60.454)" fill="#FFCBA3" r="7.162"/><circle cx="24.735" cy="67.83" transform="rotate(-9 24.735 67.83)" fill="#C86902" r="3.418"/><path fill-rule="evenodd" clip-rule="evenodd" d="M99.57 117.447c-5.93-16.295-13.345-29.291-18.512-33.201l12.865 35.346v.001l20.595 56.585 3.224-1.173a2.609 2.609 0 001.559-3.342l-19.395-53.286c-.11-.309-.223-.62-.336-.93z" fill="#fff"/><path fill-rule="evenodd" clip-rule="evenodd" d="M92 115.301l5.999-2.184 22.779 62.585-5.999 2.183L92 115.301z" fill="#744007"/><path d="M66.975 67.784s-6.966 1.47-10.034-2.87" stroke="#E99B5F" stroke-width="2.5" stroke-linecap="round" stroke-linejoin="round"/><path fill-rule="evenodd" clip-rule="evenodd" d="M74.705 142.653l-19.049 16.502 1.913 5.256c1.476 4.055 6.1 5.984 10.02 4.18l8.007-3.684a7.38 7.38 0 003.85-9.228l-4.741-13.026z" fill="#B45E00"/><rect width="53.833" height="17.944" rx="8.972" transform="scale(-1 1) rotate(-87 57.58 117.17)" fill="#C86902"/><rect width="34.336" height="17.944" rx="8.972" transform="scale(-1 1) rotate(-87 65.946 125.984)" fill="#FFCBA3"/><rect width="18.98" height="10.352" rx="5.176" transform="scale(-1 1) rotate(-42 181.95 176.023)" fill="#FFCBA3"/><path fill="#C86902" d="M61.914 158.547l-.542-10.338-17.92.94.543 10.337z"/><rect x="51.715" y="93.465" width="26.149" height="28.307" rx="13.075" transform="rotate(-50 51.715 93.465)" fill="#FFCBA3"/></g><defs><clipPath id="clip0"><path fill="#fff" d="M0 0h112v172H0z"/></clipPath></defs></svg>