<svg width="112" height="178" fill="none" xmlns="http://www.w3.org/2000/svg"><g clip-path="url(#clip0)"><path fill-rule="evenodd" clip-rule="evenodd" d="M44.324 99.226l30.012 5.3c5.966 1.054 9.948 6.744 8.894 12.71a10.967 10.967 0 01-.504 1.873l-8.469 23.071a10.97 10.97 0 01-9.93 7.184l-29.154.977c-6.055.203-11.128-4.541-11.331-10.596a10.967 10.967 0 01.345-3.121l7.61-29.349a10.97 10.97 0 0112.527-8.049z" fill="#F89700"/><path fill-rule="evenodd" clip-rule="evenodd" d="M87.52 83.506l-19.584 23.351c-3.893 4.642-3.286 11.561 1.356 15.454.496.416 1.028.788 1.59 1.11l21.317 12.23a10.968 10.968 0 0012.225-.88l22.962-17.991c4.768-3.737 5.605-10.632 1.869-15.401a10.976 10.976 0 00-2.271-2.169l-24.696-17.59a10.97 10.97 0 00-14.769 1.886z" fill="#F89700"/><path fill-rule="evenodd" clip-rule="evenodd" d="M26.125 8.757c10.593-3.855 22.133.166 28.202 9.073l-.056-.064c3.512 4.16 8.183 4.97 14.061 2.932l.377-.134c.104-.038.205-.072.303-.104l.176-.07.331-.124c9.654-3.513 20.317 1.434 23.817 11.05 3.5 9.617-1.488 20.261-11.141 23.775a18.574 18.574 0 01-13.64-.346l.762 2.094c4.515 12.404-1.771 26.106-14.055 30.804l-.548.203c-11.862 4.317-24.911-1.243-30.137-12.48-8.146.679-16.052-4.094-18.972-12.118-2.91-7.992.045-16.694 6.668-21.423l-.75-2.061C7.007 27.36 13.293 13.658 25.576 8.96l.548-.203z" fill="#E27800"/><path d="M17.515 82.426a6.77 6.77 0 10-4.63-12.725 6.77 6.77 0 004.63 12.725zM96.54 53.663a6.77 6.77 0 004.046-8.678 6.77 6.77 0 10-12.724 4.632 6.77 6.77 0 008.678 4.046z" fill="#FFB100"/><path fill-rule="evenodd" clip-rule="evenodd" d="M44.272 32.486c21.36-7.774 44.978 3.24 52.753 24.6l22.425 61.612c7.774 21.36-3.239 44.978-24.599 52.752-21.36 7.775-44.978-3.238-52.752-24.598L19.674 85.239c-7.775-21.36 3.239-44.978 24.598-52.753z" fill="#FFB100"/><path fill-rule="evenodd" clip-rule="evenodd" d="M21.85 52.148l3.77 10.358c1.902 5.224-.792 11-6.017 12.902-.707.258-1.425.431-2.141.525-.98-8.324.644-16.596 4.388-23.786zm70.338-4.43l-.112.06c-.427.231-.877.434-1.347.605-5.225 1.902-11.001-.792-12.903-6.017l-3.047-8.37a10.23 10.23 0 01-.215-.66 41.132 41.132 0 0117.624 14.381z" fill="#E27800"/><path d="M40.99 143.817l77.355-28.155 6.443 17.704c7.775 21.361-3.239 44.981-24.6 52.755-21.361 7.775-44.98-3.239-52.755-24.6l-6.444-17.704z" fill="#FFB100"/><path fill-rule="evenodd" clip-rule="evenodd" d="M29.858 113.224l77.351-28.154.563 1.547 9.514 20.951L36.6 136.935l-6.18-22.165-.562-1.546z" fill="#F89700"/><path fill-rule="evenodd" clip-rule="evenodd" d="M73.188 111.675l6.275-16.884-21.933 7.983 15.658 8.901z" fill="#FFB100"/><path fill-rule="evenodd" clip-rule="evenodd" d="M38.261 136.304l77.351-28.153 3.169 8.706-77.35 28.153-3.17-8.706z" fill="#E27800"/><path fill-rule="evenodd" clip-rule="evenodd" d="M51.82 131.369l5.525-2.011 4.632 12.724-5.525 2.011-4.632-12.724zm44.367-16.147l5.525-2.011 4.632 12.724-5.525 2.011-4.632-12.724z" fill="#FFB100"/><path fill-rule="evenodd" clip-rule="evenodd" d="M16.275 69.225l2.145.836 3.744-17.054-1.25-3.436-4.639 19.654zm72.78-26.493l-1.107 2.019-12.98-10.4-1.251-3.436 15.338 11.817z" fill="#E27800"/><path d="M52.265 81.578l-.121.04c-3.647 1.252-6.42 1.027-8.591-.557l-.1-.074c-3.462-2.615-8.323-1.917-10.857 1.558-2.533 3.475-1.781 8.412 1.68 11.027 6.7 5.06 14.817 5.787 23.023 2.971 4.047-1.389 6.174-5.856 4.75-9.977-1.41-4.08-5.77-6.292-9.784-4.988z" fill="#FFD900"/><path fill-rule="evenodd" clip-rule="evenodd" d="M34.062 59.69a8.488 8.488 0 1115.952-5.806l1.765 4.852a8.488 8.488 0 11-15.951 5.806l-1.766-4.852z" fill="#FFD900"/><path fill-rule="evenodd" clip-rule="evenodd" d="M40.778 57.618a3.81 3.81 0 117.162-2.606l1.637 4.497a3.81 3.81 0 01-7.162 2.607l-1.637-4.498z" fill="#E27800"/><path fill-rule="evenodd" clip-rule="evenodd" d="M69.126 46.93a8.488 8.488 0 10-15.952 5.805l1.766 4.852a8.488 8.488 0 1015.952-5.806l-1.766-4.852z" fill="#FFD900"/><path fill-rule="evenodd" clip-rule="evenodd" d="M63.161 49.472A3.81 3.81 0 0056 52.08l1.637 4.497a3.81 3.81 0 107.161-2.606l-1.637-4.498z" fill="#E27800"/><rect width="22.322" height="34.923" rx="11.161" transform="scale(-1 1) rotate(-70 22.193 90.964)" fill="#E27800"/><rect x="51.428" y="84.349" width="22.322" height="32.043" rx="11.161" transform="rotate(-86 51.428 84.35)" fill="#E27800"/><path fill-rule="evenodd" clip-rule="evenodd" d="M22.905 51.668l24.19-8.804 4.248 11.672-24.19 8.804-4.248-11.672z" fill="#FFB100"/><path fill-rule="evenodd" clip-rule="evenodd" d="M44.486 40.95l22.837-8.313L71.57 44.31l-22.837 8.312-4.248-11.672z" fill="#FFB100"/><path fill-rule="evenodd" clip-rule="evenodd" d="M50.076 50.884a4.32 4.32 0 013.147-5.237l13.1-3.266a4.32 4.32 0 012.09 8.384l-13.1 3.266a4.32 4.32 0 01-5.237-3.147zm-22.49-1.298a4.32 4.32 0 011.888-5.811l10.265-5.23a4.32 4.32 0 113.923 7.699l-10.265 5.23a4.32 4.32 0 01-5.811-1.888z" fill="#E27800"/><circle cx="55.527" cy="63.934" r="5.22" transform="rotate(-20 55.527 63.934)" fill="#FFB100"/></g><defs><clipPath id="clip0"><path fill="#fff" d="M0 0h112v178H0z"/></clipPath></defs></svg>