<svg width="112" height="183" fill="none" xmlns="http://www.w3.org/2000/svg"><g clip-path="url(#clip0)"><path fill-rule="evenodd" clip-rule="evenodd" d="M37.876 134.393L50 118.303c3.534-4.69 10.201-5.627 14.891-2.093 4.69 3.534 5.627 10.201 2.093 14.891l-12.125 16.09c-3.534 4.69-10.2 5.627-14.89 2.093-4.69-3.534-5.628-10.201-2.093-14.891zm92.698-33.741l-19.63-4.532c-5.722-1.32-11.431 2.247-12.752 7.969-1.322 5.722 2.246 11.431 7.968 12.752l19.631 4.532c5.721 1.321 11.431-2.246 12.752-7.968 1.321-5.722-2.247-11.432-7.969-12.753z" fill="#CC348D"/><path fill-rule="evenodd" clip-rule="evenodd" d="M76.902 97.647l.173-.063c21.18-7.71 44.601 3.212 52.31 24.393 7.632 20.969-2.995 44.132-23.761 52.074l-.804.299c-21.181 7.709-44.601-3.212-52.31-24.393-7.71-21.181 3.211-44.601 24.392-52.31z" fill="#CC348D"/><path fill-rule="evenodd" clip-rule="evenodd" d="M131.635 131.699l-74.601 27.153a40.722 40.722 0 01-3.272-5.836l76.628-27.891a40.838 40.838 0 011.245 6.574z" fill="#00448E"/><path fill-rule="evenodd" clip-rule="evenodd" d="M105.625 174.054l-.805.299c-18.524 6.742-38.76-.766-48.703-16.923l75.306-27.41c2.739 18.554-7.664 37.099-25.798 44.034z" fill="#0084C2"/><path d="M69.642 80.11c19.42-7.07 29.433-28.542 22.364-47.962-7.068-19.42-28.54-29.432-47.96-22.364-19.42 7.068-29.433 28.54-22.365 47.96 7.068 19.42 28.541 29.433 47.96 22.365z" fill="#0084C2"/><path fill-rule="evenodd" clip-rule="evenodd" d="M63.727 8.163c1.206.227 2.397.512 3.57.855l-20.401 32.93-2.963-1.836 19.794-31.95z" fill="#006AAD"/><path fill-rule="evenodd" clip-rule="evenodd" d="M34.322 52.265L51.22 27.938l28.262 7.89 18.312 50.31-45.16 16.438-18.312-50.31z" fill="#C6775C"/><path fill-rule="evenodd" clip-rule="evenodd" d="M45.736 44.386a8.649 8.649 0 0111.086 5.169l1.799 4.943a8.649 8.649 0 01-16.254 5.916l-1.8-4.943a8.649 8.649 0 015.17-11.085zm19.821-7.219a8.649 8.649 0 0111.085 5.169l1.799 4.944a8.649 8.649 0 11-16.254 5.916l-1.8-4.944a8.649 8.649 0 015.17-11.085z" fill="#fff"/><path fill-rule="evenodd" clip-rule="evenodd" d="M50.117 49.441a3.883 3.883 0 014.977 2.321l1.668 4.583A3.883 3.883 0 1149.465 59l-1.668-4.583-.072-.216a2.843 2.843 0 001.618-4.377c.238-.153.497-.283.774-.384zm15.258-5.488a3.883 3.883 0 014.977 2.32l1.668 4.584a3.883 3.883 0 11-7.297 2.656l-1.669-4.583-.071-.216a2.843 2.843 0 001.618-4.377c.238-.154.497-.283.774-.384z" fill="#3D3D3D"/><path d="M42.138 58.864c3.516-1.639 13.026-3.438 18.69-1.942a4.724 4.724 0 01-2.168 9.193l-.244-.058c-1.717-.453-4.508-.335-7.721.273a43.77 43.77 0 00-3.56.832l-.463.132-.412.123-.355.111.226-.1a4.724 4.724 0 01-3.993-8.564z" fill="#C6775C"/><path d="M77.866 48.243C74.12 49.247 65.678 53.983 62.3 58.77a4.724 4.724 0 007.57 5.649l.15-.202c1.024-1.45 3.238-3.154 6.09-4.753a43.784 43.784 0 013.261-1.651l.44-.197.395-.17.344-.144-.239.069a4.724 4.724 0 10-2.445-9.127z" fill="#C6775C"/><path d="M60.351 117.922a1.945 1.945 0 012.41-1.011l.174.071 4.658 2.173 2.172-4.659a1.945 1.945 0 012.41-1.012l.174.071a1.945 1.945 0 011.012 2.411l-.071.173-2.994 6.421a1.944 1.944 0 01-2.41 1.011l-.174-.071-6.42-2.994a1.944 1.944 0 01-.941-2.584zm14.824-5.394a1.945 1.945 0 012.41-1.012l.174.071 4.658 2.172 2.172-4.658A1.945 1.945 0 0187 108.09l.174.071a1.944 1.944 0 011.012 2.41l-.071.174-2.994 6.42a1.945 1.945 0 01-2.41 1.012l-.174-.071-6.42-2.994a1.945 1.945 0 01-.94-2.584zM90 107.133a1.945 1.945 0 012.41-1.011l.173.071 4.658 2.171 2.173-4.657a1.945 1.945 0 012.41-1.012l.174.071a1.945 1.945 0 011.011 2.411l-.071.173-2.994 6.421a1.945 1.945 0 01-2.41 1.011l-.174-.071-6.42-2.994a1.944 1.944 0 01-.94-2.584zm-18.391 19.188a1.945 1.945 0 012.41-1.012l.174.071 4.657 2.173 2.173-4.659a1.945 1.945 0 012.41-1.011l.174.071a1.944 1.944 0 011.011 2.41l-.07.174-2.995 6.42a1.945 1.945 0 01-2.41 1.012l-.173-.071-6.42-2.994a1.945 1.945 0 01-.941-2.584zm14.821-5.395a1.944 1.944 0 012.41-1.011l.173.071 4.658 2.172 2.172-4.658a1.945 1.945 0 012.41-1.012l.174.071a1.945 1.945 0 011.012 2.411l-.071.173-2.994 6.421a1.945 1.945 0 01-2.41 1.011l-.174-.071-6.42-2.994a1.944 1.944 0 01-.94-2.584z" fill="#A71E6E"/><path fill-rule="evenodd" clip-rule="evenodd" d="M92.2 170.396l18.271-6.65a1.834 1.834 0 012.351 1.096l13.363 36.714a1.835 1.835 0 01-1.096 2.351l-18.271 6.65a1.833 1.833 0 01-2.351-1.096l-13.363-36.714a1.834 1.834 0 011.096-2.351z" fill="#0084C2"/><path fill-rule="evenodd" clip-rule="evenodd" d="M48.896 65.62l29.041-10.57c11.4-4.15 24.006 1.728 28.155 13.128 4.149 11.4-1.728 24.005-13.129 28.155l-29.041 10.57c-11.4 4.149-24.006-1.728-28.155-13.129-4.15-11.4 1.728-24.005 13.129-28.154z" fill="#3D3D3D"/><path d="M47.643 66.194a8.606 8.606 0 015.925-3.277 8.833 8.833 0 016.49 1.952c1.16.908 2.62.84 4.437.293l.118-.034a8.758 8.758 0 016.678.798 9.064 9.064 0 014.238 5.235 8.935 8.935 0 01-.576 6.77 8.625 8.625 0 01-5.205 4.332c-7.472 2.243-14.738 1.217-20.618-3.567a9.084 9.084 0 01-3.288-5.958 8.854 8.854 0 011.8-6.544z" fill="#fff" stroke="#3D3D3D" stroke-width="5.337"/><path d="M63.78 63.286a5.044 5.044 0 10-3.45-9.48 5.044 5.044 0 003.45 9.48z" fill="#C6775C"/><path fill-rule="evenodd" clip-rule="evenodd" d="M70.783 110.058l-10.866-7.894a6.156 6.156 0 017.237-9.96l10.866 7.894a6.156 6.156 0 01-7.237 9.96z" fill="#C6775C"/><path fill-rule="evenodd" clip-rule="evenodd" d="M89.856 103.117l3.25-13.032a6.156 6.156 0 00-11.947-2.98l-3.25 13.033a6.157 6.157 0 0011.947 2.979z" fill="#C6775C"/><path fill-rule="evenodd" clip-rule="evenodd" d="M45.964 123.812l11.45-15.196c3.535-4.69 10.202-5.627 14.892-2.093 4.69 3.534 5.627 10.201 2.093 14.891L62.948 136.61c-3.535 4.69-10.201 5.627-14.891 2.093-4.69-3.534-5.627-10.201-2.093-14.891zm71.613-26.064l-18.54-4.28c-5.721-1.321-11.43 2.247-12.752 7.969-1.32 5.722 2.247 11.431 7.969 12.752l18.54 4.28c5.722 1.321 11.431-2.246 12.752-7.968 1.321-5.722-2.247-11.432-7.969-12.753z" fill="#CC348D"/></g><defs><clipPath id="clip0"><path fill="#fff" d="M0 0h112v183H0z"/></clipPath></defs></svg>