<svg width="52" height="52" fill="none" xmlns="http://www.w3.org/2000/svg"><mask id="a" mask-type="alpha" maskUnits="userSpaceOnUse" x="0" y="0" width="52" height="52"><circle cx="26" cy="26" r="26" fill="#fff"/></mask><g mask="url(#a)"><circle cx="26" cy="26" r="26" fill="#FFDFE0"/><path d="M17.068 12.124h15.99v9.783h-15.99v-9.783z" fill="#3D3D3D"/><path d="M21.09 19.479a5.061 5.061 0 01-7.156-.17l-1.674-1.754a5.061 5.061 0 01.17-7.155l1.961-1.872a5.061 5.061 0 017.156.17l1.673 1.754a5.061 5.061 0 01-.169 7.155L21.09 19.48zM30.602 19.406a5.061 5.061 0 007.155-.168l1.674-1.755a5.061 5.061 0 00-.17-7.156l-1.96-1.87a5.061 5.061 0 00-7.157.168l-1.673 1.754a5.061 5.061 0 00.169 7.156l1.962 1.871z" fill="#3D3D3D"/><path d="M18.84 8.061A5.061 5.061 0 0123.903 3h3.658a5.061 5.061 0 015.061 5.061v3.027a5.061 5.061 0 01-5.061 5.061h-3.658a5.061 5.061 0 01-5.061-5.061V8.061z" fill="#3D3D3D"/><path d="M21.694 38.572h7.926v4.624h-7.926v-4.624z" fill="#FDB02A"/><path d="M32.129 20.737a3.877 3.877 0 013.877 3.877v9.693a4.556 4.556 0 01-4.556 4.555H20.207a4.556 4.556 0 01-4.556-4.555v-9.693a3.877 3.877 0 013.877-3.877h12.6z" fill="#A46648"/><path d="M19.956 27.19a2.592 2.592 0 115.184 0v1.614a2.592 2.592 0 01-5.184 0V27.19zM26.607 27.19a2.592 2.592 0 115.183 0v1.614a2.592 2.592 0 01-5.183 0V27.19z" fill="#fff"/><path d="M22.444 27.742a.935.935 0 00.738-1.51 1.147 1.147 0 011.363 1.127v1.445a1.147 1.147 0 11-2.295 0v-1.082c.063.013.128.02.194.02zM27.202 27.741a.935.935 0 00.769-1.465 1.147 1.147 0 011.525 1.083v1.444a1.147 1.147 0 11-2.294 0v-1.062z" fill="#3D3D3D"/><path d="M25 31.39a.847.847 0 001.695 0c0-.467-.812-1.553-.848-1.553-.035 0-.847 1.086-.847 1.554z" fill="#86401F"/><path d="M25.211 19.212a3.921 3.921 0 014.24-3.573l-.093 1.102a3.921 3.921 0 01-4.241 3.573l.094-1.102z" fill="#FDB02A"/><path d="M22.323 16.702a3.921 3.921 0 004.24 3.573l-.093-1.102a3.921 3.921 0 00-4.241-3.573l.094 1.102z" fill="#FDB02A"/><path d="M16.595 60.756a2.563 2.563 0 003.307-1.484l5.258-13.811a2.563 2.563 0 10-4.791-1.824L15.11 57.448a2.563 2.563 0 001.484 3.308z" fill="#A46648"/><path d="M20.862 74.653a1.793 1.793 0 01-1.744 1.378h-3.969a1.793 1.793 0 01-1.734-2.248l5.685-21.64a3.774 3.774 0 013.65-2.814h2.462c.853 0 1.482.796 1.285 1.626l-5.635 23.698z" fill="#1CB0F6"/><path d="M24.267 74.24c.001.99.803 1.791 1.793 1.791h4.363c1.008 0 1.817-.83 1.792-1.838l-.553-21.658a3.774 3.774 0 00-3.773-3.678h-1.853c-.99 0-1.794.804-1.793 1.794l.024 23.59z" fill="#1CB0F6"/><path d="M20.939 47.63h9.436v1.982h-9.436V47.63z" fill="#FF4B4B"/><path d="M19.43 45.89a5.148 5.148 0 015.148-5.148h2.63a5.149 5.149 0 015.148 5.149 2.023 2.023 0 01-2.023 2.022h-8.881a2.023 2.023 0 01-2.023-2.022z" fill="#FDB02A"/><path d="M24.59 31.625c0-.482.39-.873.872-.873h.775a.872.872 0 010 1.745h-.775a.872.872 0 01-.872-.872z" fill="#86401F"/><path d="M23.392 49.612h1.982v5.095a.85.85 0 01-.85.85h-.282a.85.85 0 01-.85-.85v-5.095z" fill="#3CC0FF"/><path d="M14.392 19.768h11.825v1.16l-10.651 5.625-1.174-6.785z" fill="#FDB02A"/><path d="M37.169 19.768H25.344v1.16l10.65 5.625 1.175-6.785z" fill="#FDB02A"/><path d="M21.788 47.914h1.038v1.698h-1.038v-1.698zM26.506 47.914h1.038v2.075h-1.038v-2.075z" fill="#1CB0F6"/><path d="M24.666 32.214c-.893-1.488-3.071-2.04-5.138-1.488l.447 1.488c1.973.404 5.403 1.186 4.691 0z" fill="#A46648"/><path fill-rule="evenodd" clip-rule="evenodd" d="M22.523 32.397a.42.42 0 01.57.168c.298.55.969 1.287 2.44 1.287a.42.42 0 110 .84c-1.83 0-2.76-.955-3.178-1.726a.42.42 0 01.168-.57z" fill="#884727"/><path d="M17.92 28.806a2.312 2.312 0 11-4.624 0 2.312 2.312 0 014.624 0zM37.095 46.041a2.563 2.563 0 00-1.803-3.144l-4.783-1.295a2.563 2.563 0 10-1.34 4.947l4.782 1.296a2.563 2.563 0 003.144-1.804z" fill="#A46648"/><path d="M36.283 43.538a2.542 2.542 0 00-3.58.31l-2.957 3.518a2.542 2.542 0 003.89 3.27l2.958-3.517a2.542 2.542 0 00-.31-3.581zM19.146 28.098a3.774 3.774 0 013.775-3.774h5.661a3.774 3.774 0 013.774 3.774v.66h-13.21v-.66z" fill="#A46648"/><path d="M26.506 26.684c0-.26.212-.472.472-.472h3.397a.472.472 0 010 .944h-3.397a.472.472 0 01-.472-.472z" fill="#884727"/><path fill-rule="evenodd" clip-rule="evenodd" d="M21.04 24.772c1.89-.813 3.621-.05 4.273.451a.425.425 0 01-.517.674c-.49-.377-1.897-1-3.421-.345a.425.425 0 01-.336-.78z" fill="#884727"/><path d="M29.719 48.476a1.844 1.844 0 012.56-.5l1.939 1.305a1.844 1.844 0 01-2.06 3.06l-1.94-1.306a1.844 1.844 0 01-.5-2.56zM38.206 28.712a2.312 2.312 0 11-4.623 0 2.312 2.312 0 014.623 0z" fill="#A46648"/><path fill-rule="evenodd" clip-rule="evenodd" d="M32.023 45.704a.236.236 0 01-.194.272c-.28.047-.569.183-.822.343-.252.16-.454.333-.559.439a.236.236 0 01-.336-.331c.13-.132.36-.328.643-.507.281-.178.63-.348.996-.41a.236.236 0 01.272.194z" fill="#995332"/></g></svg>