<svg width="52" height="52" viewBox="0 0 52 52" fill="none" xmlns="http://www.w3.org/2000/svg">
<g clip-path="url(#clip0_1_30)">
<path d="M26 52C40.3594 52 52 40.3594 52 26C52 11.6406 40.3594 0 26 0C11.6406 0 0 11.6406 0 26C0 40.3594 11.6406 52 26 52Z" fill="#B4E3B9"/>
<mask id="mask0_1_30" style="mask-type:alpha" maskUnits="userSpaceOnUse" x="0" y="0" width="52" height="52">
<path d="M26 52C40.3594 52 52 40.3594 52 26C52 11.6406 40.3594 0 26 0C11.6406 0 0 11.6406 0 26C0 40.3594 11.6406 52 26 52Z" fill="#B4E3B9"/>
</mask>
<g mask="url(#mask0_1_30)">
<path d="M10.9206 23.4078C10.9205 22.6197 11.0756 21.8394 11.3771 21.1112C11.6786 20.3831 12.1205 19.7215 12.6777 19.1642C13.235 18.6069 13.8965 18.1648 14.6246 17.8632C15.3526 17.5616 16.133 17.4064 16.9211 17.4064H34.4427C36.0341 17.4064 37.5603 18.0386 38.6856 19.1639C39.811 20.2892 40.4431 21.8154 40.4431 23.4069V50.1705H10.9206V23.4078Z" fill="#FFB100"/>
<path fill-rule="evenodd" clip-rule="evenodd" d="M6.47985 43.4508C6.35258 43.4508 6.23053 43.5013 6.14054 43.5913C6.05056 43.6813 6 43.8034 6 43.9306C6.00013 44.7818 6.16789 45.6245 6.49372 46.4108C6.81955 47.1971 7.29707 47.9116 7.899 48.5133C8.50093 49.1151 9.21549 49.5924 10.0019 49.918C10.7883 50.2436 11.6311 50.4111 12.4822 50.411H39.0055C40.7242 50.411 42.3725 49.7282 43.5878 48.5129C44.8031 47.2976 45.4858 45.6493 45.4858 43.9306C45.486 43.8675 45.4736 43.805 45.4496 43.7467C45.4255 43.6884 45.3902 43.6354 45.3456 43.5907C45.3011 43.5461 45.2481 43.5106 45.1898 43.4864C45.1316 43.4623 45.0691 43.4498 45.006 43.4498H6.47985V43.4508Z" fill="#FFB100"/>
<path d="M13.2006 24.4877C13.2006 23.4691 13.6052 22.4922 14.3255 21.7719C15.0458 21.0517 16.0227 20.647 17.0413 20.647H34.3234C34.8278 20.647 35.3272 20.7464 35.7932 20.9394C36.2592 21.1324 36.6826 21.4153 37.0392 21.7719C37.3958 22.1286 37.6787 22.552 37.8718 23.018C38.0648 23.4839 38.1641 23.9834 38.1641 24.4877V46.8107H13.2006V24.4877Z" fill="#FFC6B7"/>
<path d="M14.5209 30.6084C14.5209 30.9709 14.4495 31.3298 14.3108 31.6647C14.172 31.9996 13.9687 32.3039 13.7124 32.5602C13.4561 32.8166 13.1518 33.0199 12.8169 33.1586C12.482 33.2973 12.123 33.3687 11.7606 33.3687C11.3981 33.3687 11.0391 33.2973 10.7042 33.1586C10.3693 33.0199 10.065 32.8166 9.80871 32.5602C9.5524 32.3039 9.34907 31.9996 9.21035 31.6647C9.07163 31.3298 9.00024 30.9709 9.00024 30.6084C9.00024 29.8763 9.29105 29.1742 9.80871 28.6566C10.3264 28.1389 11.0285 27.8481 11.7606 27.8481C12.4926 27.8481 13.1947 28.1389 13.7124 28.6566C14.2301 29.1742 14.5209 29.8763 14.5209 30.6084ZM42.0038 30.6084C42.0038 31.3405 41.713 32.0426 41.1954 32.5602C40.6777 33.0779 39.9756 33.3687 39.2435 33.3687C38.5114 33.3687 37.8093 33.0779 37.2917 32.5602C36.774 32.0426 36.4832 31.3405 36.4832 30.6084C36.4832 29.8763 36.774 29.1742 37.2917 28.6566C37.8093 28.1389 38.5114 27.8481 39.2435 27.8481C39.9756 27.8481 40.6777 28.1389 41.1954 28.6566C41.713 29.1742 42.0038 29.8763 42.0038 30.6084Z" fill="#FFC6B7"/>
<path d="M10.9206 23.5872C10.9206 22.9665 11.1671 22.3713 11.606 21.9325C12.0448 21.4936 12.64 21.2471 13.2607 21.2471C13.8813 21.2471 14.4765 21.4936 14.9154 21.9325C15.3542 22.3713 15.6008 22.9665 15.6008 23.5872V27.6683C15.6008 28.2889 15.3542 28.8841 14.9154 29.3229C14.4765 29.7618 13.8813 30.0083 13.2607 30.0083C12.64 30.0083 12.0448 29.7618 11.606 29.3229C11.1671 28.8841 10.9206 28.2889 10.9206 27.6683V23.5872ZM35.8832 23.5271C35.8832 22.9222 36.1234 22.3422 36.5511 21.9145C36.9788 21.4869 37.5588 21.2466 38.1636 21.2466C38.7684 21.2466 39.3485 21.4869 39.7762 21.9145C40.2038 22.3422 40.4441 22.9222 40.4441 23.5271V27.7284C40.4441 28.333 40.2039 28.913 39.7763 29.3406C39.3487 29.7681 38.7688 30.0083 38.1641 30.0083C37.5594 30.0083 36.9795 29.7681 36.5519 29.3406C36.1243 28.913 35.8841 28.333 35.8841 27.7284V23.5271H35.8832ZM31.203 16.8063C31.2129 17.5849 31.0681 18.3577 30.777 19.0799C30.4859 19.8021 30.0543 20.4593 29.5073 21.0133C28.9602 21.5674 28.3086 22.0073 27.5902 22.3076C26.8717 22.6079 26.1009 22.7625 25.3222 22.7625C24.5436 22.7625 23.7727 22.6079 23.0543 22.3076C22.3359 22.0073 21.6842 21.5674 21.1372 21.0133C20.5901 20.4593 20.1585 19.8021 19.8674 19.0799C19.5763 18.3577 19.4315 17.5849 19.4415 16.8063C19.4612 15.2596 20.0894 13.783 21.1901 12.6962C22.2908 11.6094 23.7754 11 25.3222 11C26.869 11 28.3536 11.6094 29.4543 12.6962C30.555 13.783 31.1833 15.2596 31.203 16.8063Z" fill="#FFB100"/>
<path d="M19.1925 12.42L25.0003 18.8231C25.3113 19.1665 25.2139 19.6979 24.8076 19.8724C22.8557 20.7119 20.4842 20.1624 18.9502 18.4701C17.4162 16.7787 17.1014 14.3661 18.1298 12.5078C18.3425 12.1214 18.8815 12.0766 19.1925 12.42Z" fill="#FFB100"/>
<path d="M27.1228 33.4789C27.1228 34.2135 26.478 34.9289 25.6823 34.9289C24.8867 34.9289 24.2419 34.2135 24.2419 33.4789C24.2419 32.7443 25.6222 30.8478 25.6823 30.8478C25.7424 30.8478 27.1228 32.7443 27.1228 33.4789Z" fill="#EE9583"/>
<path d="M26.5218 28.0889C26.5218 27.2295 26.8633 26.4052 27.471 25.7975C28.0787 25.1897 28.903 24.8483 29.7625 24.8483C30.622 24.8483 31.4462 25.1897 32.054 25.7975C32.6617 26.4052 33.0031 27.2295 33.0031 28.0889V29.8891C33.0031 30.7486 32.6617 31.5728 32.054 32.1806C31.4462 32.7883 30.622 33.1297 29.7625 33.1297C28.903 33.1297 28.0787 32.7883 27.471 32.1806C26.8633 31.5728 26.5218 30.7486 26.5218 29.8891V28.0889ZM18.3606 28.0889C18.3606 27.2295 18.702 26.4052 19.3098 25.7975C19.9175 25.1897 20.7418 24.8483 21.6013 24.8483C22.4607 24.8483 23.285 25.1897 23.8927 25.7975C24.5005 26.4052 24.8419 27.2295 24.8419 28.0889V29.8891C24.8419 30.7486 24.5005 31.5728 23.8927 32.1806C23.285 32.7883 22.4607 33.1297 21.6013 33.1297C20.7418 33.1297 19.9175 32.7883 19.3098 32.1806C18.702 31.5728 18.3606 30.7486 18.3606 29.8891V28.0889Z" fill="white"/>
<path d="M21.1205 28.2683C21.1154 28.0681 21.1505 27.869 21.2236 27.6826C21.2967 27.4961 21.4064 27.3262 21.5462 27.1829C21.686 27.0395 21.8531 26.9256 22.0376 26.8478C22.2221 26.77 22.4203 26.7299 22.6206 26.7299C22.8208 26.7299 23.019 26.77 23.2036 26.8478C23.3881 26.9256 23.5552 27.0395 23.695 27.1829C23.8347 27.3262 23.9444 27.4961 24.0176 27.6826C24.0907 27.869 24.1257 28.0681 24.1207 28.2683V29.9483C24.1257 30.1484 24.0907 30.3476 24.0176 30.534C23.9444 30.7205 23.8347 30.8903 23.695 31.0337C23.5552 31.1771 23.3881 31.291 23.2036 31.3688C23.019 31.4466 22.8208 31.4867 22.6206 31.4867C22.4203 31.4867 22.2221 31.4466 22.0376 31.3688C21.8531 31.291 21.686 31.1771 21.5462 31.0337C21.4064 30.8903 21.2967 30.7205 21.2236 30.534C21.1505 30.3476 21.1154 30.1484 21.1205 29.9483V28.2683Z" fill="#3D3D3D"/>
<path d="M22.3225 27.3678C22.3225 27.6543 22.2086 27.9291 22.006 28.1317C21.8034 28.3343 21.5286 28.4481 21.2421 28.4481C20.9556 28.4481 20.6808 28.3343 20.4781 28.1317C20.2755 27.9291 20.1617 27.6543 20.1617 27.3678C20.1617 27.0812 20.2755 26.8064 20.4781 26.6038C20.6808 26.4012 20.9556 26.2874 21.2421 26.2874C21.5286 26.2874 21.8034 26.4012 22.006 26.6038C22.2086 26.8064 22.3225 27.0812 22.3225 27.3678Z" fill="white"/>
<path fill-rule="evenodd" clip-rule="evenodd" d="M27.3623 28.4476C27.5514 28.4478 27.7372 28.3984 27.9012 28.3042C28.0652 28.2101 28.2016 28.0745 28.2967 27.911C28.3919 27.7476 28.4424 27.5621 28.4433 27.373C28.4443 27.1839 28.3955 26.9979 28.302 26.8335C28.5264 26.7646 28.7639 26.7492 28.9954 26.7888C29.2268 26.8283 29.4457 26.9216 29.6346 27.0612C29.8234 27.2007 29.9769 27.3826 30.0826 27.5923C30.1883 27.8019 30.2433 28.0335 30.2433 28.2683V29.9473C30.2334 30.3386 30.071 30.7106 29.7908 30.9838C29.5105 31.2571 29.1346 31.41 28.7432 31.41C28.3517 31.41 27.9758 31.2571 27.6955 30.9838C27.4153 30.7106 27.2529 30.3386 27.243 29.9473V28.441C27.2812 28.4457 27.3222 28.4476 27.3623 28.4476Z" fill="#3D3D3D"/>
<path d="M13.2006 46.8106H38.1641V51.8514H13.2006V46.8106Z" fill="#FF4B4B"/>
<path d="M8.88004 43.4498C10.5981 43.4498 10.9339 42.1047 10.9196 41.4093H11.6093V44.3809L8.88004 44.3666V43.4498ZM42.0935 43.4498C40.3745 43.4498 40.0387 42.1047 40.052 41.4093H39.3632V44.3809L42.0926 44.3666L42.0935 43.4498Z" fill="#FFB100"/>
<path d="M24.3735 47.2733C24.4046 47.1416 24.4793 47.0243 24.5855 46.9403C24.6916 46.8563 24.8229 46.8107 24.9583 46.8106H26.5266C26.6619 46.8107 26.7933 46.8563 26.8994 46.9403C27.0056 47.0243 27.0802 47.1416 27.1114 47.2733L28.1503 51.7141C28.171 51.8022 28.1715 51.8939 28.1518 51.9822C28.132 52.0706 28.0926 52.1533 28.0363 52.2243C27.9801 52.2952 27.9085 52.3525 27.8269 52.3918C27.7454 52.4312 27.656 52.4516 27.5655 52.4515H23.9184C23.8281 52.4512 23.7389 52.4306 23.6575 52.3912C23.5762 52.3517 23.5048 52.2944 23.4487 52.2235C23.3926 52.1527 23.3532 52.07 23.3335 51.9818C23.3137 51.8936 23.3141 51.8021 23.3346 51.7141L24.3735 47.2733Z" fill="#EBE3E3"/>
<path d="M19.3213 12.606C20.1608 13.4455 20.7618 13.0258 21.2416 12.606L21.6022 12.8226L20.135 14.2411L18.8414 12.9905C18.8748 12.9561 19.0456 12.8808 19.3213 12.606ZM32.5233 17.4074C31.39 17.4074 31.203 16.4467 31.1429 15.9669H30.6888L30.7231 18.0065L32.5233 18.036V17.4074Z" fill="#FFB100"/>
<path d="M23.162 33.0687C21.4219 31.8085 19.0818 31.0882 17.5211 30.8478V34.8688H23.162V33.0687Z" fill="#FFC6B7"/>
<path fill-rule="evenodd" clip-rule="evenodd" d="M19.4558 33.5123C20.023 33.2606 20.667 33.2445 21.2461 33.4676C21.8252 33.6907 22.292 34.1347 22.5438 34.7019C22.6125 34.8574 22.8223 35.1541 23.16 35.3887C23.4758 35.6082 23.7868 35.6969 24.072 35.6759C24.6912 35.6314 25.3026 35.8346 25.7719 36.2409C26.2411 36.6472 26.5298 37.2233 26.5743 37.8424C26.6188 38.4615 26.4156 39.0729 26.0093 39.5422C25.603 40.0115 25.027 40.3001 24.4078 40.3446C21.3418 40.565 19.0656 38.4023 18.2652 36.6012C18.1404 36.3203 18.0722 36.0176 18.0645 35.7103C18.0567 35.403 18.1096 35.0972 18.2201 34.8103C18.3306 34.5235 18.4965 34.2612 18.7083 34.0385C18.9202 33.8157 19.1748 33.6369 19.4558 33.5123Z" fill="#A41414"/>
<path fill-rule="evenodd" clip-rule="evenodd" d="M22.0534 33.9902C21.9878 34.4194 21.8124 34.8242 21.5443 35.1656C21.2762 35.5071 20.9244 35.7734 20.5231 35.939C20.1218 36.1045 19.6845 36.1636 19.2537 36.1105C18.8228 36.0574 18.413 35.8939 18.0639 35.6358C18.0667 35.1749 18.2057 34.725 18.4632 34.3427C18.7208 33.9604 19.0855 33.6626 19.5117 33.4869C19.9378 33.3111 20.4064 33.2651 20.8586 33.3546C21.3108 33.4442 21.7264 33.6653 22.0534 33.9902Z" fill="white"/>
<path fill-rule="evenodd" clip-rule="evenodd" d="M24.923 35.7713C24.5682 36.1178 24.119 36.352 23.6318 36.4444C23.1445 36.5369 22.6408 36.4835 22.1838 36.2911C21.7267 36.0986 21.3366 35.7755 21.0622 35.3624C20.7879 34.9492 20.6416 34.4643 20.6416 33.9683V33.3225C21.0521 33.3642 21.4444 33.5137 21.7784 33.756C22.1125 33.9983 22.3766 34.3246 22.5438 34.7019C22.6125 34.8574 22.8214 35.1541 23.16 35.3888C23.4749 35.6082 23.7868 35.6969 24.072 35.675C24.3678 35.6549 24.6549 35.6902 24.923 35.7713Z" fill="white"/>
<path fill-rule="evenodd" clip-rule="evenodd" d="M26.3558 39.011C26.1786 39.3861 25.9047 39.7072 25.5624 39.9416C25.2201 40.176 24.8216 40.3151 24.4078 40.3446C22.9673 40.4477 21.7005 40.0251 20.6788 39.3601C21.0658 38.9457 21.5341 38.6155 22.0544 38.39C22.5747 38.1645 23.1358 38.0485 23.7029 38.0494C24.7122 38.0494 25.6375 38.4109 26.3558 39.011Z" fill="#D22121"/>
<path d="M9.60029 21.0067C9.60029 20.784 9.68874 20.5705 9.84617 20.4131C10.0036 20.2556 10.2171 20.1672 10.4398 20.1672H40.3239C40.5465 20.1672 40.7601 20.2556 40.9175 20.4131C41.0749 20.5705 41.1634 20.784 41.1634 21.0067V22.5674C41.1634 22.79 41.0749 23.0035 40.9175 23.161C40.7601 23.3184 40.5465 23.4069 40.3239 23.4069H10.4407C10.3304 23.407 10.2211 23.3854 10.1192 23.3432C10.0172 23.3011 9.92456 23.2393 9.84651 23.1613C9.76845 23.0834 9.70653 22.9908 9.66428 22.8888C9.62203 22.7869 9.60029 22.6777 9.60029 22.5674V21.0067Z" fill="#FF4B4B"/>
</g>
</g>
<defs>
<clipPath id="clip0_1_30">
<rect width="52" height="52" fill="white"/>
</clipPath>
</defs>
</svg>
