<svg width="52" height="52" fill="none" xmlns="http://www.w3.org/2000/svg"><circle cx="26" cy="26" r="26" fill="#F0DAFF"/><mask id="a" mask-type="alpha" maskUnits="userSpaceOnUse" x="0" y="0" width="52" height="52"><circle cx="26" cy="26" r="26" fill="#fff"/></mask><g mask="url(#a)"><path fill-rule="evenodd" clip-rule="evenodd" d="M25.29 7a13.722 13.722 0 0113.556 11.592l3.146 20.023a.68.68 0 01-.673.786H10.681a.68.68 0 01-.677-.757l2.243-19.983A13.125 13.125 0 0125.29 7z" fill="#A570FF"/><path fill-rule="evenodd" clip-rule="evenodd" d="M37.368 18.117h1.008a2.587 2.587 0 110 5.174h-1.008a2.587 2.587 0 110-5.174z" fill="#FFC6B7"/><path fill-rule="evenodd" clip-rule="evenodd" d="M26.797 9.043a11.22 11.22 0 0111.15 9.963l1.04 9.196a5.541 5.541 0 01-5.507 6.163H19.528a5.54 5.54 0 01-5.484-6.329l1.302-9.069a11.569 11.569 0 0111.451-9.924z" fill="#FFC6B7"/><path fill-rule="evenodd" clip-rule="evenodd" d="M26.797 8.484c5.41 0 10.502 4.349 11.568 9.63H29.92a8.168 8.168 0 01-8.168-8.168v-.772c1.475-.479 3.177-.69 5.045-.69z" fill="#A570FF"/><mask id="b" mask-type="alpha" maskUnits="userSpaceOnUse" x="26" y="18" width="8" height="9"><path d="M33.233 18.781H30.24a3.429 3.429 0 00-3.428 3.43v2.387c0 .924.748 1.672 1.672 1.672h1.756a3.429 3.429 0 003.43-3.429v-3.623a.436.436 0 00-.437-.437z" fill="#fff"/></mask><g mask="url(#b)"><path d="M33.232 18.781H30.24a3.429 3.429 0 00-3.43 3.43v2.387c0 .924.75 1.672 1.673 1.672h1.756a3.429 3.429 0 003.43-3.429v-3.623a.436.436 0 00-.437-.437z" fill="#fff"/><path fill-rule="evenodd" clip-rule="evenodd" d="M29.523 19.363c.85 0 1.54.69 1.54 1.54v1.933a1.54 1.54 0 11-3.08 0v-1.933c0-.85.69-1.54 1.54-1.54z" fill="#3D3D3D"/><path fill-rule="evenodd" clip-rule="evenodd" d="M26.288 17.11h8.8v5.745h-8.8v-5.746z" fill="#A570FF"/></g><mask id="c" mask-type="alpha" maskUnits="userSpaceOnUse" x="19" y="18" width="7" height="9"><path d="M19.518 18.781h2.993a3.429 3.429 0 013.429 3.43v2.314c0 .964-.782 1.745-1.745 1.745H22.51a3.429 3.429 0 01-3.429-3.429v-3.623c0-.241.195-.437.436-.437z" fill="#fff"/></mask><g mask="url(#c)"><path d="M19.517 18.781h2.993a3.429 3.429 0 013.429 3.43v2.314c0 .964-.782 1.745-1.745 1.745H22.51a3.429 3.429 0 01-3.429-3.429v-3.623c0-.241.195-.437.436-.437z" fill="#fff"/><path fill-rule="evenodd" clip-rule="evenodd" d="M23.24 19.363c.85 0 1.539.69 1.539 1.54v1.933a1.54 1.54 0 11-3.079 0v-1.933c0-.85.69-1.54 1.54-1.54z" fill="#3D3D3D"/><path fill-rule="evenodd" clip-rule="evenodd" d="M18.137 17.11h8.8v5.745h-8.8v-5.746z" fill="#A570FF"/></g><path d="M28.13 30.287c.99-1.908 2.117-2.684 3.334-2.076a.45.45 0 11-.402.804c-.645-.323-1.34.156-2.134 1.686a.45.45 0 11-.797-.414z" fill="#EE9583"/><path fill-rule="evenodd" clip-rule="evenodd" d="M26.303 28.525c.763 0 1.381-.615 1.381-1.374 0-.759-1.381-2.553-1.381-2.553l-.166.223c-.367.504-1.216 1.735-1.216 2.33 0 .759.619 1.374 1.382 1.374z" fill="#EE9583"/><path fill-rule="evenodd" clip-rule="evenodd" d="M16.856 11.201l.166-.163 3.935-1.635a.817.817 0 011.13.754v24.887a.68.68 0 01-.68.68h-7.728a.817.817 0 01-.817-.816V20.833c0-3.616 1.439-7.08 3.994-9.632z" fill="#A570FF"/><path fill-rule="evenodd" clip-rule="evenodd" d="M23.176 34.418h5.6c.24 0 .436.195.436.436v21.09a.436.436 0 01-.437.436h-5.6a.436.436 0 01-.436-.437V34.854c0-.24.196-.436.437-.436z" fill="#593F86"/><path fill-rule="evenodd" clip-rule="evenodd" d="M23.176 51h5.6c.24 0 .436.195.436.436v25.745a.436.436 0 01-.437.436h-5.6a.436.436 0 01-.436-.436V51.436c0-.24.196-.436.437-.436z" fill="#A570FF"/><path fill-rule="evenodd" clip-rule="evenodd" d="M25.891 38.047h.25a3.39 3.39 0 012.82 1.507l5.78 8.644a2.584 2.584 0 01-2.148 4.02H19.44a2.584 2.584 0 01-2.148-4.02l5.78-8.644a3.392 3.392 0 012.82-1.507z" fill="#593F86"/><path fill-rule="evenodd" clip-rule="evenodd" d="M21.006 46.862a2.368 2.368 0 113.629 3.045 2.368 2.368 0 01-3.629-3.045z" fill="#FFC6B7"/><path fill-rule="evenodd" clip-rule="evenodd" d="M19.451 47.992h12.488a2.153 2.153 0 110 4.306H19.451a2.153 2.153 0 110-4.306z" fill="#593F86"/><path fill-rule="evenodd" clip-rule="evenodd" d="M33.44 47.714l-5.7-1.963a4.306 4.306 0 00-5.433 2.555l-.041.115 9.772 3.365a2.153 2.153 0 001.402-4.072z" fill="#593F86"/><path fill-rule="evenodd" clip-rule="evenodd" d="M31.592 48.38a1.152 1.152 0 01-1.714.143l-2.332-2.216.98-.313c.9-.288 1.885-.12 2.64.448l.172.13c.57.43.683 1.24.254 1.809z" fill="#FFC6B7"/></g></svg>