<svg width="52" height="52" fill="none" xmlns="http://www.w3.org/2000/svg"><circle cx="25.509" cy="25.509" r="25.509" fill="#B5E7FF"/><mask id="a" mask-type="alpha" maskUnits="userSpaceOnUse" x="0" y="0" width="52" height="52"><circle cx="25.509" cy="25.509" r="25.509" fill="#C6EDFF"/></mask><g mask="url(#a)"><path fill="#B45E00" d="M16.815 49.07l16.195 2.565-2.553 16.117-16.195-2.565z"/><path fill-rule="evenodd" clip-rule="evenodd" d="M26.475 51.572c.123-.7.79-1.167 1.49-1.044l7.162 1.263c.7.123 1.168.79 1.044 1.49l-3.24 18.378a1.287 1.287 0 01-1.491 1.044l-7.162-1.263a1.287 1.287 0 01-1.043-1.491l3.24-18.377z" fill="#744007"/><path fill-rule="evenodd" clip-rule="evenodd" d="M18.502 49.338a1.287 1.287 0 011.71-.622l6.591 3.073c.644.3.923 1.066.622 1.71L19.94 69.551c-.3.644-1.066.923-1.71.623L11.64 67.1a1.287 1.287 0 01-.623-1.71l7.485-16.052z" fill="#744007"/><circle cx="44.682" cy="24.231" r="2.462" transform="rotate(10 44.682 24.231)" fill="#FFCBA3"/><rect x="42.499" y="7.352" width="16.589" height="24.319" rx="8.294" transform="rotate(100 42.499 7.352)" fill="#3D3D3D"/><rect x="18.77" y="11.238" width="28.217" height="17.264" rx="8.394" transform="rotate(10 18.77 11.238)" fill="#FFCBA3"/><mask id="b" mask-type="alpha" maskUnits="userSpaceOnUse" x="15" y="11" width="32" height="23"><rect x="18.77" y="11.238" width="28.217" height="17.264" rx="8.394" transform="rotate(10 18.77 11.238)" fill="#fff"/></mask><g mask="url(#b)"><rect opacity=".689" x="42.227" y="8.148" width="14.158" height="14.769" rx="7.079" transform="rotate(10 42.227 8.148)" fill="#C4C4C4"/></g><path fill-rule="evenodd" clip-rule="evenodd" d="M16.645 44.648l20.445 3.605-.876 4.965-20.444-3.605.875-4.965z" fill="#D8D8D8"/><path fill-rule="evenodd" clip-rule="evenodd" d="M28.614 17.71a2.788 2.788 0 015.49.968l-.298 1.695a2.788 2.788 0 01-5.491-.968l.299-1.695z" fill="#E99B5F"/><path fill-rule="evenodd" clip-rule="evenodd" d="M28.439 18.703a2.788 2.788 0 115.491.968l-.299 1.694a2.788 2.788 0 01-5.491-.968l.299-1.695z" fill="#fff"/><path fill-rule="evenodd" clip-rule="evenodd" d="M30.11 19.131a1.255 1.255 0 112.473.436l-.275 1.553a1.256 1.256 0 11-2.473-.436l.274-1.553z" fill="#3D3D3D"/><path fill-rule="evenodd" clip-rule="evenodd" d="M40.606 19.824a2.788 2.788 0 00-5.49-.968l-.3 1.693a2.788 2.788 0 105.49.968l.3-1.693z" fill="#E99B5F"/><path fill-rule="evenodd" clip-rule="evenodd" d="M40.43 20.816a2.788 2.788 0 00-5.491-.968l-.298 1.694a2.788 2.788 0 105.491.968l.299-1.694z" fill="#fff"/><circle r=".979" transform="scale(-1 1) rotate(-10 89.71 186.753)" fill="#fff"/><path fill-rule="evenodd" clip-rule="evenodd" d="M37.72 20.467a1.256 1.256 0 00-2.473-.436l-.274 1.553a1.255 1.255 0 102.473.436l.273-1.553z" fill="#3D3D3D"/><mask id="c" mask-type="alpha" maskUnits="userSpaceOnUse" x="34" y="18" width="4" height="6"><path fill-rule="evenodd" clip-rule="evenodd" d="M37.72 20.467a1.256 1.256 0 00-2.473-.436l-.274 1.553a1.255 1.255 0 102.473.436l.273-1.553z" fill="#fff"/></mask><g mask="url(#c)"><circle cx="35.932" cy="19.238" r="1.008" transform="rotate(10 35.932 19.238)" fill="#fff"/></g><path fill-rule="evenodd" clip-rule="evenodd" d="M40.493 20.298a2.778 2.778 0 00-5.472-.965l-.156.886 5.472.965.156-.886zm-6.484-1.14a2.778 2.778 0 10-5.472-.965l-.156.886 5.472.964.156-.885z" fill="#E99B5F"/><ellipse cx="33.92" cy="23.865" rx="1.175" ry="1.679" transform="rotate(10 33.92 23.865)" fill="#E99B5F"/><circle cx="26.961" cy="45.41" r="12.307" transform="rotate(10 26.96 45.41)" fill="#fff"/><mask id="d" mask-type="alpha" maskUnits="userSpaceOnUse" x="12" y="31" width="30" height="29"><circle cx="26.961" cy="45.41" r="12.307" transform="rotate(10 26.96 45.41)" fill="#fff"/></mask><g mask="url(#d)"><path fill="#744007" d="M8.597 56.477l30.9 5.448 2.472-14.019-30.9-5.448z"/></g><path fill-rule="evenodd" clip-rule="evenodd" d="M25.53 28.227l8.85 1.56-.929 5.271a4.494 4.494 0 01-8.851-1.56l.93-5.271z" fill="#FFCBA3"/><rect x="34.315" y="7.879" width="13.642" height="16.37" rx="6.528" transform="rotate(100 34.315 7.879)" fill="#3D3D3D"/><path fill-rule="evenodd" clip-rule="evenodd" d="M13.365 44.459c1.035-5.87 5.672-10.2 11.236-11.119l-4.48 25.41-1.36 7.712-8.12-1.432A.89.89 0 019.92 64l3.434-19.474.011-.067zm26.875 4.742c1.034-5.87-1.842-11.525-6.757-14.291l-4.48 25.41-1.205 6.836a.89.89 0 00.722 1.03l7.243 1.277a.89.89 0 001.03-.721l3.44-19.51.006-.031z" fill="#C86902"/><mask mask-type="alpha" maskUnits="userSpaceOnUse" x="27" y="34" width="16" height="36"><path fill-rule="evenodd" clip-rule="evenodd" d="M40.24 49.201c1.034-5.87-1.842-11.525-6.757-14.291l-4.48 25.41-1.205 6.836a.89.89 0 00.722 1.03l7.243 1.277a.89.89 0 001.03-.721l3.44-19.51.006-.031z" fill="#fff"/></mask><circle cx="18.154" cy="19.555" r="2.462" transform="rotate(10 18.154 19.555)" fill="#FFCBA3"/><circle cx="17.977" cy="22.178" r="1.175" transform="rotate(10 17.977 22.178)" fill="#C86902"/><path fill-rule="evenodd" clip-rule="evenodd" d="M33.166 47.958c1.035-5.869 1.11-11.002.313-13.044L31.234 47.65l-3.595 20.386 1.051.185a.89.89 0 001.03-.722l3.44-19.51.006-.03z" fill="#fff"/><path fill-rule="evenodd" clip-rule="evenodd" d="M31.28 46.027l2.16.381-3.975 22.548-2.161-.382 3.975-22.547z" fill="#744007"/><path fill-rule="evenodd" clip-rule="evenodd" d="M24.228 46.38c1.035-5.87 1.11-11.003.313-13.044L22.296 46.07 18.7 66.457l1.052.185a.89.89 0 001.03-.722l3.44-19.51.005-.03z" fill="#C86902"/><path fill-rule="evenodd" clip-rule="evenodd" d="M22.185 51.33l-8.507 1.638-.338 1.914a2.518 2.518 0 002.248 2.945l3.054.283a2.518 2.518 0 002.712-2.07l.83-4.71z" fill="#B45E00"/><rect width="12.574" height="6.169" rx="3.084" transform="scale(1 -1) rotate(42 69.576 -5.198)" fill="#C86902"/><rect x="13.457" y="52.23" width="19.182" height="6.169" rx="3.084" transform="rotate(-112 13.457 52.23)" fill="#C86902"/><rect width="8.007" height="6.169" rx="3.084" transform="scale(1 -1) rotate(-12 -177.257 -41.185)" fill="#FFCBA3"/><rect width="8.6" height="2.313" rx="1.157" transform="scale(1 -1) rotate(-12 -157.58 -28.38)" fill="#FFCBA3"/><rect width="6.643" height="2.313" rx="1.157" transform="scale(-1 1) rotate(78 -24.07 8.14)" fill="#FFCBA3"/><rect x="23.888" y="33.145" width="8.423" height="8.956" rx="4.004" transform="rotate(-20 23.888 33.145)" fill="#FFCBA3"/><path fill-rule="evenodd" clip-rule="evenodd" d="M30.46 29.736c-2.26-.606-3.735-1.963-4.026-4.005a1.948 1.948 0 011.629-2.203 1.91 1.91 0 012.137 1.438c.196.356.485.696.905.911.109.039.228.076.359.111l.03.009a1.93 1.93 0 011.322 2.362 1.93 1.93 0 01-2.356 1.377z" fill="#B23131"/><mask id="e" mask-type="alpha" maskUnits="userSpaceOnUse" x="25" y="23" width="9" height="8"><path fill-rule="evenodd" clip-rule="evenodd" d="M30.46 29.736c-2.26-.606-3.735-1.963-4.026-4.005a1.948 1.948 0 011.629-2.203 1.91 1.91 0 012.137 1.438c.196.356.485.696.905.911.109.039.228.076.359.111l.03.009a1.93 1.93 0 011.322 2.362 1.93 1.93 0 01-2.356 1.377z" fill="#fff"/></mask><g mask="url(#e)"><circle cx="27.667" cy="29.057" r="2.747" transform="rotate(10 27.667 29.057)" fill="#FF4B4B"/></g></g></svg>