<svg width="52" height="52" viewBox="0 0 52 52" fill="none" xmlns="http://www.w3.org/2000/svg">
<g clip-path="url(#clip0_1_57)">
<path d="M26 52C40.3594 52 52 40.3594 52 26C52 11.6406 40.3594 0 26 0C11.6406 0 0 11.6406 0 26C0 40.3594 11.6406 52 26 52Z" fill="#FFDBBA"/>
<mask id="mask0_1_57" style="mask-type:alpha" maskUnits="userSpaceOnUse" x="0" y="0" width="52" height="52">
<path d="M26 52C40.3594 52 52 40.3594 52 26C52 11.6406 40.3594 0 26 0C11.6406 0 0 11.6406 0 26C0 40.3594 11.6406 52 26 52Z" fill="#FFDBBA"/>
</mask>
<g mask="url(#mask0_1_57)">
<path d="M31.3973 18.7536C31.3973 23.588 27.4773 27.5071 22.6429 27.5071C17.8085 27.5071 13.8893 23.5871 13.8893 18.7536C13.8893 13.9192 17.8093 10 22.6429 10C27.4781 10 31.3973 13.9192 31.3973 18.7536Z" fill="#3D3D3D"/>
<path d="M42.6513 26.0858C42.6513 27.9401 41.9147 29.7185 40.6035 31.0297C39.2923 32.3409 37.5139 33.0775 35.6596 33.0775C33.8053 33.0775 32.0269 32.3409 30.7157 31.0297C29.4045 29.7185 28.6679 27.9401 28.6679 26.0858C28.6679 24.2315 29.4045 22.4531 30.7157 21.1419C32.0269 19.8307 33.8053 19.0941 35.6596 19.0941C37.5139 19.0941 39.2923 19.8307 40.6035 21.1419C41.9147 22.4531 42.6513 24.2315 42.6513 26.0858Z" fill="#3D3D3D"/>
<path d="M35.8303 19.0941C33.1017 19.0941 31.737 18.0708 30.7145 15.3422L30.1458 16.7061V22.6187H35.8303V19.0941ZM22.6429 25.9151C22.6429 26.8109 22.4664 27.6979 22.1236 28.5256C21.7808 29.3532 21.2784 30.1052 20.6449 30.7386C20.0115 31.372 19.2595 31.8745 18.4319 32.2173C17.6043 32.5601 16.7172 32.7365 15.8214 32.7365C14.9256 32.7365 14.0386 32.5601 13.211 32.2173C12.3834 31.8745 11.6314 31.372 10.998 30.7386C10.3645 30.1052 9.86206 29.3532 9.51925 28.5256C9.17644 27.6979 9 26.8109 9 25.9151C9 24.1059 9.71869 22.3709 10.998 21.0916C12.2772 19.8123 14.0123 19.0937 15.8214 19.0937C17.6306 19.0937 19.3657 19.8123 20.6449 21.0916C21.9242 22.3709 22.6429 24.1059 22.6429 25.9151Z" fill="#3D3D3D"/>
<path d="M39.9707 31.181C39.7906 30.493 39.5607 29.8257 39.2854 29.1823C39.6059 28.9737 39.9716 28.8446 40.3521 28.8059C40.7326 28.7672 41.1168 28.8199 41.4728 28.9598C41.8287 29.0997 42.1461 29.3226 42.3984 29.61C42.6508 29.8973 42.8308 30.2409 42.9235 30.6119C43.0162 30.983 43.0189 31.3708 42.9313 31.7431C42.8437 32.1154 42.6685 32.4614 42.4201 32.7522C42.1717 33.043 41.8575 33.2703 41.5035 33.4151C41.1495 33.5598 40.766 33.6179 40.385 33.5844C40.4211 34.0022 40.4391 34.4216 40.4391 34.8411V45.3145H33.2398L26.0397 50.8016L18.8395 45.3136H11.6394V34.8402C11.6394 34.4199 11.6565 33.9987 11.6934 33.5793C11.3086 33.6228 10.9191 33.5726 10.5579 33.4328C10.1968 33.2931 9.87489 33.068 9.61963 32.7769C9.36438 32.4857 9.18339 32.1371 9.09213 31.7608C9.00087 31.3844 9.00205 30.9916 9.09556 30.6159C9.18908 30.2401 9.37215 29.8926 9.62914 29.603C9.88613 29.3133 10.2094 29.0902 10.5714 28.9526C10.9333 28.8151 11.3232 28.7671 11.7077 28.813C12.0922 28.8588 12.4599 28.997 12.7793 29.2158C12.4663 29.9526 12.2132 30.7212 12.0245 31.5146C12.5396 31.6297 13.0739 31.6275 13.588 31.5082C14.1021 31.389 14.5828 31.1557 14.9945 30.8256C15.4063 30.4955 15.7386 30.0771 15.9669 29.6013C16.1952 29.1255 16.3136 28.6044 16.3134 28.0767V24.5855C16.3144 24.4687 16.309 24.3518 16.2971 24.2356C18.9517 21.7903 22.4304 20.4353 26.0397 20.4408C29.6991 20.4356 33.2222 21.8287 35.8886 24.3351V27.7027C35.8886 28.2125 35.9993 28.7163 36.213 29.1792C36.4267 29.6421 36.7383 30.0531 37.1264 30.3839C37.5144 30.7146 37.9696 30.9571 38.4606 31.0947C38.9515 31.2324 39.4665 31.2618 39.9699 31.181H39.9707Z" fill="#DA8E74"/>
<path d="M30.0986 44.883C29.9672 44.8829 29.8375 44.9131 29.7196 44.9711C29.6016 45.0291 29.4986 45.1134 29.4184 45.2176L26.5946 48.8888C26.5145 48.9929 26.4116 49.0773 26.2937 49.1353C26.1758 49.1933 26.0462 49.2235 25.9149 49.2235C25.7835 49.2235 25.6539 49.1933 25.536 49.1353C25.4181 49.0773 25.3152 48.9929 25.2351 48.8888L22.4104 45.2176C22.3303 45.1135 22.2274 45.0293 22.1097 44.9713C21.9919 44.9133 21.8624 44.8831 21.7311 44.883H11.6394V49.7723C11.6394 50.4207 11.8969 51.0425 12.3554 51.501C12.8139 51.9594 13.4357 52.217 14.084 52.217H37.9953C38.3163 52.217 38.6342 52.1538 38.9308 52.0309C39.2274 51.908 39.4969 51.728 39.7239 51.501C39.9509 51.274 40.131 51.0045 40.2539 50.7079C40.3767 50.4113 40.4399 50.0934 40.4399 49.7723V44.883H30.0986Z" fill="#FFAADE"/>
<path d="M19.5557 28.7895V29.7717C19.5557 30.5513 19.8655 31.299 20.4167 31.8503C20.968 32.4016 21.7157 32.7113 22.4953 32.7113C23.275 32.7113 24.0227 32.4016 24.5739 31.8503C25.1252 31.299 25.4349 30.5513 25.4349 29.7717V28.7895H19.5557ZM26.6006 28.7895V29.7717C26.6006 30.5512 26.9103 31.2988 27.4615 31.85C28.0127 32.4012 28.7603 32.7108 29.5398 32.7108C30.3193 32.7108 31.0669 32.4012 31.6181 31.85C32.1693 31.2988 32.479 30.5512 32.479 29.7717V28.7895H26.6006Z" fill="white"/>
<path d="M21.9875 28.7895V29.7674C21.9875 30.1173 22.1265 30.4528 22.3739 30.7002C22.6213 30.9476 22.9569 31.0866 23.3068 31.0866C23.6567 31.0866 23.9922 30.9476 24.2396 30.7002C24.4871 30.4528 24.626 30.1173 24.626 29.7674V28.7895H21.9875ZM27.5957 28.7895V29.7674C27.5957 30.1173 27.7346 30.4528 27.9821 30.7002C28.2295 30.9476 28.565 31.0866 28.9149 31.0866C29.2648 31.0866 29.6004 30.9476 29.8478 30.7002C30.0952 30.4528 30.2342 30.1173 30.2342 29.7674V28.7895H27.5957Z" fill="#3D3D3D"/>
<path fill-rule="evenodd" clip-rule="evenodd" d="M23.6525 26.5104C22.8668 25.994 21.8958 25.8885 20.4658 26.5885C20.1088 26.7499 19.7029 26.766 19.3342 26.6333C18.9654 26.5007 18.6628 26.2297 18.4904 25.8778C18.318 25.5259 18.2894 25.1207 18.4106 24.748C18.5318 24.3754 18.7933 24.0645 19.1397 23.8813C21.267 22.8391 23.414 22.7448 25.3097 23.992C25.6437 24.2117 25.8766 24.5552 25.9574 24.9467C26.0381 25.3383 25.9601 25.7458 25.7403 26.0798C25.6315 26.2452 25.4912 26.3875 25.3273 26.4986C25.1635 26.6097 24.9794 26.6875 24.7856 26.7275C24.394 26.8083 23.9864 26.7302 23.6525 26.5104Z" fill="#3D3D3D"/>
<path fill-rule="evenodd" clip-rule="evenodd" d="M28.7794 26.5104C29.566 25.994 30.5378 25.8885 31.9669 26.5885C32.3239 26.7499 32.7298 26.766 33.0986 26.6333C33.4673 26.5007 33.7699 26.2297 33.9423 25.8778C34.1147 25.5259 34.1433 25.1207 34.0221 24.748C33.9009 24.3754 33.6394 24.0645 33.293 23.8813C31.1657 22.8391 29.0187 22.7448 27.123 23.992C26.7891 24.2116 26.556 24.5549 26.4752 24.9464C26.3944 25.3379 26.4723 25.7454 26.692 26.0794C26.9116 26.4133 27.255 26.6464 27.6464 26.7272C28.0379 26.808 28.4454 26.7301 28.7794 26.5104Z" fill="#3D3D3D"/>
<path d="M17.8668 40.1207C17.3664 39.2539 17.2308 38.2239 17.4898 37.2571C17.7488 36.2903 18.3811 35.466 19.2478 34.9655L23.5607 32.4753C23.9902 32.2191 24.4664 32.0508 24.9615 31.9803C25.4567 31.9097 25.9609 31.9382 26.4449 32.0642C26.9289 32.1902 27.3831 32.4111 27.781 32.7141C28.1788 33.0172 28.5125 33.3963 28.7626 33.8294C29.0127 34.2625 29.1742 34.741 29.2378 35.2371C29.3013 35.7332 29.2657 36.237 29.1328 36.7191C29 37.2013 28.7726 37.6523 28.464 38.0458C28.1553 38.4394 27.7715 38.7677 27.3349 39.0116L23.022 41.5025C22.1552 42.0029 21.1252 42.1385 20.1584 41.8796C19.1917 41.6206 18.3674 40.9874 17.8668 40.1207Z" fill="#3D3D3D"/>
<path d="M34.2057 40.1207C34.706 39.2539 34.8417 38.2239 34.5827 37.2571C34.3237 36.2903 33.6913 35.466 32.8246 34.9655L28.5118 32.4753C28.0822 32.2191 27.6061 32.0508 27.1109 31.9803C26.6158 31.9097 26.1116 31.9382 25.6275 32.0642C25.1435 32.1902 24.6894 32.4111 24.2915 32.7141C23.8936 33.0172 23.5599 33.3963 23.3098 33.8294C23.0597 34.2625 22.8982 34.741 22.8347 35.2371C22.7711 35.7332 22.8068 36.237 22.9396 36.7191C23.0725 37.2013 23.2998 37.6523 23.6085 38.0458C23.9171 38.4394 24.3009 38.7677 24.7376 39.0116L29.0504 41.5025C29.9172 42.0029 30.9473 42.1385 31.914 41.8796C32.8808 41.6206 33.7051 40.9874 34.2057 40.1207Z" fill="#3D3D3D"/>
<path d="M27.8787 32.4024C27.8787 32.6491 27.8301 32.8934 27.7357 33.1213C27.6413 33.3492 27.503 33.5563 27.3285 33.7307C27.1541 33.9052 26.947 34.0435 26.7191 34.1379C26.4912 34.2323 26.2469 34.2809 26.0002 34.2809C25.7535 34.2809 25.5092 34.2323 25.2813 34.1379C25.0534 34.0435 24.8463 33.9052 24.6719 33.7307C24.4974 33.5563 24.3591 33.3492 24.2647 33.1213C24.1703 32.8934 24.1217 32.6491 24.1217 32.4024C24.1217 31.9042 24.3196 31.4264 24.6719 31.0741C25.0242 30.7218 25.502 30.5239 26.0002 30.5239C26.4984 30.5239 26.9762 30.7218 27.3285 31.0741C27.6808 31.4264 27.8787 31.9042 27.8787 32.4024Z" fill="#DA8E74"/>
</g>
</g>
<defs>
<clipPath id="clip0_1_57">
<rect width="52" height="52" fill="white"/>
</clipPath>
</defs>
</svg>
