<svg width="52" height="52" fill="none" xmlns="http://www.w3.org/2000/svg"><circle cx="26" cy="26" r="26" fill="#B5E7FF"/><mask id="a" mask-type="alpha" maskUnits="userSpaceOnUse" x="0" y="0" width="52" height="52"><circle cx="26" cy="26" r="26" fill="#fff"/></mask><g mask="url(#a)"><path fill-rule="evenodd" clip-rule="evenodd" d="M8.118 56.845l2.617-5.612a3.46 3.46 0 016.272 2.925l-2.617 5.611a3.46 3.46 0 01-6.272-2.924z" fill="#CC348D"/><path fill-rule="evenodd" clip-rule="evenodd" d="M10.733 51.237l2.771-5.942a3.46 3.46 0 016.272 2.925l-2.77 5.942a3.46 3.46 0 01-6.273-2.925zm32.309 5.608l-2.617-5.612a3.46 3.46 0 00-6.272 2.925l2.617 5.611a3.46 3.46 0 006.272-2.924z" fill="#CC348D"/><path fill-rule="evenodd" clip-rule="evenodd" d="M40.424 51.237l-2.77-5.942a3.46 3.46 0 00-6.272 2.925l2.77 5.942a3.46 3.46 0 006.272-2.925z" fill="#CC348D"/><mask id="b" mask-type="alpha" maskUnits="userSpaceOnUse" x="12" y="37" width="27" height="28"><path d="M25.55 37.707h.06c7.335 0 13.282 5.946 13.282 13.281 0 7.262-5.828 13.162-13.062 13.28l-.28.001c-7.334 0-13.28-5.946-13.28-13.28 0-7.336 5.946-13.282 13.28-13.282z" fill="#fff"/></mask><g mask="url(#b)"><path d="M25.55 37.707h.06c7.335 0 13.282 5.946 13.282 13.281 0 7.262-5.828 13.162-13.062 13.28l-.28.001c-7.334 0-13.28-5.946-13.28-13.28 0-7.336 5.946-13.282 13.28-13.282z" fill="#CC348D"/></g><mask id="c" mask-type="alpha" maskUnits="userSpaceOnUse" x="13" y="5" width="25" height="25"><path d="M25.284 29.354c6.725 0 12.177-5.452 12.177-12.177S32.01 5 25.284 5s-12.177 5.452-12.177 12.177 5.452 12.177 12.177 12.177z" fill="#fff"/></mask><g mask="url(#c)"><path d="M25.284 29.354c6.725 0 12.177-5.452 12.177-12.177S32.01 5 25.284 5s-12.177 5.452-12.177 12.177 5.452 12.177 12.177 12.177z" fill="#0084C2"/><path d="M34.385 6.598l.702.89-12.508 9.85-.702-.89 12.508-9.85z" fill="#006AAD"/></g><path fill-rule="evenodd" clip-rule="evenodd" d="M17.59 18.937l7.875-5.558 7.764 5.558V36.36h-15.64V18.937z" fill="#C6775C"/><path fill-rule="evenodd" clip-rule="evenodd" d="M21.95 17.953a2.814 2.814 0 012.814 2.814v1.713a2.814 2.814 0 01-5.63 0v-1.713a2.814 2.814 0 012.815-2.814zm6.863 0a2.814 2.814 0 012.814 2.814v1.713a2.814 2.814 0 01-5.629 0v-1.713a2.814 2.814 0 012.814-2.814z" fill="#fff"/><path fill-rule="evenodd" clip-rule="evenodd" d="M22.724 19.621c.698 0 1.264.566 1.264 1.264v1.587a1.264 1.264 0 01-2.527 0v-1.587l.002-.075a.925.925 0 00.982-1.158c.09-.02.183-.03.28-.03zm5.278.012c.698 0 1.263.566 1.263 1.263v1.587a1.264 1.264 0 11-2.527 0v-1.587l.002-.074a.925.925 0 00.982-1.158c.09-.02.184-.031.28-.031z" fill="#3D3D3D"/><path d="M19.434 24.129c1.041 0 3.779.69 5.095 1.706l.101.08-.802.964c-.572-.476-1.521-.871-2.673-1.165l-.164-.04c-.663-.16-1.393-.282-1.542-.291h-.015v-1.254z" fill="#C6775C"/><path d="M18.799 43.006a.633.633 0 01.85-.041l.044.04 1.183 1.183 1.183-1.182a.633.633 0 01.85-.041l.045.04a.633.633 0 01.04.85l-.04.045-1.63 1.63a.633.633 0 01-.85.042l-.045-.041-1.63-1.63a.633.633 0 010-.895zm5.134 0a.633.633 0 01.85-.041l.045.04 1.183 1.183 1.183-1.182a.633.633 0 01.85-.041l.044.04a.633.633 0 01.041.85l-.04.045-1.63 1.63a.633.633 0 01-.85.042l-.046-.041-1.63-1.63a.633.633 0 010-.895zm5.133 0a.633.633 0 01.85-.041l.045.04 1.182 1.183 1.183-1.182a.633.633 0 01.85-.041l.045.04a.633.633 0 01.041.85l-.04.045-1.63 1.63a.633.633 0 01-.85.042l-.046-.041-1.63-1.63a.633.633 0 010-.895zm-7.76 3.82a.633.633 0 01.85-.041l.045.04 1.183 1.183 1.183-1.182a.633.633 0 01.85-.041l.044.04a.633.633 0 01.041.85l-.04.046-1.63 1.63a.633.633 0 01-.85.04l-.046-.04-1.63-1.63a.633.633 0 010-.895zm5.134 0a.633.633 0 01.849-.041l.045.04 1.183 1.184 1.182-1.183a.633.633 0 01.85-.041l.045.04a.633.633 0 01.041.85l-.04.046-1.63 1.63a.633.633 0 01-.85.04l-.046-.04-1.63-1.63a.633.633 0 010-.895z" fill="#A71E6E"/><path fill-rule="evenodd" clip-rule="evenodd" d="M19.642 25.887H31.52a6.238 6.238 0 110 12.475H19.642a6.238 6.238 0 110-12.475z" fill="#3D3D3D"/><path d="M25.012 28.772l-.026-.001c-.75-.04-1.246-.268-1.542-.685L23.388 28a1.583 1.583 0 10-2.703 1.65c.883 1.445 2.365 2.19 4.135 2.283a1.583 1.583 0 00.192-3.16z" fill="#fff"/><path fill-rule="evenodd" clip-rule="evenodd" d="M25.364 27.181a1.641 1.641 0 100-3.282 1.641 1.641 0 000 3.282z" fill="#C6775C"/></g></svg>