<svg width="52" height="52" fill="none" xmlns="http://www.w3.org/2000/svg"><circle cx="26" cy="26" r="26" fill="#FFF099"/><mask id="a" mask-type="alpha" maskUnits="userSpaceOnUse" x="0" y="0" width="52" height="52"><circle cx="26" cy="26" r="26" fill="#fff"/></mask><g mask="url(#a)"><path fill-rule="evenodd" clip-rule="evenodd" d="M15.52 25.064l24.917 8.308a2.572 2.572 0 011.626 3.254l-.064.193a2.572 2.572 0 01-3.254 1.626l-24.917-8.308a2.572 2.572 0 01-1.627-3.254l.064-.193a2.572 2.572 0 013.254-1.626z" fill="#2FE3FF"/><path d="M6.255 21.78l-2.42 2.74a.812.812 0 00.072 1.146l2.74 2.42a.812.812 0 001.147-.071l2.42-2.74a.812.812 0 00-.072-1.147l-2.74-2.42a.812.812 0 00-1.147.072z" fill="#FFC6B7"/><path d="M7.284 20.463a1.32 1.32 0 10-2.297 1.302l.768 1.355a1.32 1.32 0 102.297-1.303l-.768-1.354z" fill="#FFC6B7"/><path d="M10.514 22.903a1.32 1.32 0 10-2.587-.523l-.31 1.526a1.32 1.32 0 002.589.524l.308-1.527zm-5.798-1.579a1.32 1.32 0 00-1.747 1.98l1.167 1.03a1.32 1.32 0 001.748-1.98l-1.168-1.03z" fill="#FFC6B7"/><path d="M4.047 23.881a1.32 1.32 0 10-.524 2.588l.93.188a1.32 1.32 0 10.523-2.588l-.929-.188z" fill="#FFC6B7"/><path fill-rule="evenodd" clip-rule="evenodd" d="M19.196 36.278a2.572 2.572 0 01-3.637.099l-8.798-8.332L10.3 24.31l8.798 8.332a2.572 2.572 0 01.1 3.637z" fill="#2FE3FF"/><path d="M50.371 36.351l.291 3.644a.812.812 0 01-.745.874l-3.644.29a.812.812 0 01-.875-.744l-.29-3.644a.812.812 0 01.745-.875l3.644-.29a.812.812 0 01.874.745z" fill="#FFC6B7"/><path d="M50.342 34.678a1.32 1.32 0 011.055 2.42l-1.427.622a1.32 1.32 0 11-1.055-2.42l1.427-.622z" fill="#FFC6B7"/><path d="M46.291 34.69a1.32 1.32 0 112.384 1.135l-.669 1.406a1.32 1.32 0 01-2.384-1.134l.669-1.406zm5.586 2.22a1.32 1.32 0 01.21 2.632l-1.553.124a1.32 1.32 0 01-.21-2.631l1.553-.124z" fill="#FFC6B7"/><path d="M50.878 39.357a1.32 1.32 0 01-1.135 2.385l-.855-.408a1.32 1.32 0 111.134-2.384l.856.407z" fill="#FFC6B7"/><path fill-rule="evenodd" clip-rule="evenodd" d="M31.318 40.18a2.572 2.572 0 002.85 2.262l12.038-1.384-.588-5.111L33.58 37.33a2.572 2.572 0 00-2.262 2.85z" fill="#2FE3FF"/><path fill-rule="evenodd" clip-rule="evenodd" d="M33.61 11.9a3.998 3.998 0 012.523 5.06l-.19.57-7.578-2.526.19-.57a4 4 0 015.056-2.534z" fill="#FF9600"/><path d="M28.322 14.27c2.234.744 4.64-.434 5.373-2.633.733-2.2-.484-4.586-2.718-5.33-2.235-.746-4.64.433-5.374 2.632-.733 2.198.484 4.585 2.719 5.33z" fill="#FF9600"/><mask id="b" mask-type="alpha" maskUnits="userSpaceOnUse" x="6" y="11" width="40" height="47"><path d="M25.39 13.225l14.384 4.796a5.145 5.145 0 013.254 6.508l-7.191 21.567-.9 5.862a5.145 5.145 0 01-6.712 4.1L11.8 50.582a5.145 5.145 0 01-2.909-7.309l2.797-5.224 7.192-21.57a5.145 5.145 0 016.508-3.254z" fill="#fff"/></mask><g mask="url(#b)"><path d="M25.39 13.225l14.384 4.796a5.145 5.145 0 013.254 6.508l-7.191 21.567-.9 5.862a5.145 5.145 0 01-6.712 4.1L11.8 50.582a5.145 5.145 0 01-2.909-7.309l2.797-5.224 7.192-21.57a5.145 5.145 0 016.508-3.254z" fill="#FFC6B7"/><path opacity=".332" d="M23.12 5.261L10.02.893A3.046 3.046 0 006.166 2.82l-3.083 9.247a3.046 3.046 0 001.926 3.854l13.1 4.368a3.046 3.046 0 003.854-1.927l3.084-9.247A3.046 3.046 0 0023.12 5.26zm36.927 12.313l-13.1-4.368a3.046 3.046 0 00-3.854 1.926L40.01 24.38a3.046 3.046 0 001.926 3.853l13.1 4.368a3.046 3.046 0 003.854-1.926l3.084-9.248a3.046 3.046 0 00-1.927-3.853z" fill="#FF9600"/><path d="M42.212 41.52L7.791 30.043l-11.113 33.33L31.099 74.85l11.113-33.33z" fill="#3285BD"/><path d="M43.305 38.255L8.884 26.776 5.822 35.96l34.421 11.477 3.062-9.184z" fill="#2FE3FF"/></g><path d="M41.39 31.473a2.268 2.268 0 101.434-4.302 2.268 2.268 0 00-1.434 4.302zM15.894 22.97a2.268 2.268 0 101.435-4.303 2.268 2.268 0 00-1.435 4.302z" fill="#FFC6B7"/><path fill-rule="evenodd" clip-rule="evenodd" d="M27.54 16.658a3.192 3.192 0 012.018 4.038l-.614 1.841a3.192 3.192 0 01-6.056-2.019l.614-1.842a3.192 3.192 0 014.038-2.018z" fill="#fff"/><path fill-rule="evenodd" clip-rule="evenodd" d="M27.775 18.735a1.433 1.433 0 01.907 1.812l-.57 1.708a1.433 1.433 0 01-2.718-.907l.569-1.707a1.433 1.433 0 011.812-.906z" fill="#3D3D3D"/><path fill-rule="evenodd" clip-rule="evenodd" d="M36.016 19.479a3.192 3.192 0 00-4.037 2.018l-.615 1.842a3.192 3.192 0 106.056 2.019l.614-1.842a3.192 3.192 0 00-2.018-4.037z" fill="#fff"/><mask id="c" mask-type="alpha" maskUnits="userSpaceOnUse" x="31" y="20" width="6" height="6"><path d="M34.773 21.066a1.433 1.433 0 00-1.812.906l-.57 1.708a1.433 1.433 0 102.72.906l.569-1.707a1.433 1.433 0 00-.907-1.813z" fill="#fff"/></mask><g mask="url(#c)"><path d="M34.773 21.066a1.433 1.433 0 00-1.812.906l-.57 1.708a1.433 1.433 0 102.72.906l.569-1.707a1.433 1.433 0 00-.907-1.813z" fill="#3D3D3D"/><path d="M32.988 22.112a1.15 1.15 0 11.728-2.183 1.15 1.15 0 01-.728 2.183z" fill="#fff"/></g><path d="M21.086 22.278c3.21 1.051 5.736 2.75 7.578 5.095" stroke="#FFC6B7" stroke-width="1.422"/><path fill-rule="evenodd" clip-rule="evenodd" d="M28.931 26.464a1.254 1.254 0 001.585-.795c.22-.657-.45-2.609-.45-2.609s-1.707 1.16-1.926 1.817c-.22.658.135 1.368.791 1.587z" fill="#EE9583"/><path d="M26.63 19.983a1.15 1.15 0 11.729-2.183 1.15 1.15 0 01-.729 2.183z" fill="#fff"/><mask id="d" mask-type="alpha" maskUnits="userSpaceOnUse" x="21" y="24" width="9" height="9"><path d="M23.205 24.918l5.917 2.689-.7 1.54a3.25 3.25 0 01-5.917-2.688l.7-1.541z" fill="#fff"/></mask><g mask="url(#d)"><path d="M23.205 24.918l5.917 2.689-.7 1.54a3.25 3.25 0 01-5.917-2.688l.7-1.541z" fill="#B52424"/><path d="M24.175 33.91a3.25 3.25 0 102.689-5.917 3.25 3.25 0 00-2.69 5.916z" fill="#FF4B4B"/></g><path d="M24.7 34.602c-.463.651-2.135 3.311-4.751 2.668m8.153-1.507c-.252.758-1.074 3.791-3.764 3.94" stroke="#fff" stroke-width="1.354" stroke-linecap="round" stroke-linejoin="round"/></g></svg>