<svg width="52" height="52" fill="none" xmlns="http://www.w3.org/2000/svg"><circle cx="25.509" cy="25.509" r="25.509" fill="#FFF099"/><mask id="a" mask-type="alpha" maskUnits="userSpaceOnUse" x="0" y="0" width="52" height="52"><circle cx="25.509" cy="25.509" r="25.509" fill="#fff"/></mask><g mask="url(#a)"><path d="M25.873 11.639c2.677 0 4.848-2.158 4.848-4.82C30.72 4.158 28.55 2 25.873 2s-4.847 2.158-4.847 4.82c0 2.66 2.17 4.819 4.848 4.819z" fill="#3D3D3D"/><mask id="b" mask-type="alpha" maskUnits="userSpaceOnUse" x="8" y="34" width="36" height="30"><path d="M23.562 34.367h4.958c8.077 0 14.625 6.548 14.625 14.625v12.865a1.76 1.76 0 01-1.76 1.76H10.697a1.76 1.76 0 01-1.76-1.76V48.992c0-8.077 6.547-14.625 14.625-14.625z" fill="#fff"/></mask><g mask="url(#b)"><path d="M23.562 34.367h4.958c8.077 0 14.625 6.548 14.625 14.625v12.865a1.76 1.76 0 01-1.76 1.76H10.697a1.76 1.76 0 01-1.76-1.76V48.992c0-8.077 6.547-14.625 14.625-14.625z" fill="#FFB100"/><path d="M25.635 48.031a1.375 1.375 0 100-2.75 1.375 1.375 0 000 2.75zm.629-9.956a2.98 2.98 0 10-5.961 0v2.014a2.98 2.98 0 005.961 0v-2.014z" fill="#fff"/><path d="M31.222 38.075a2.98 2.98 0 10-5.961 0v2.014a2.98 2.98 0 005.961 0v-2.014z" fill="#fff"/><path fill-rule="evenodd" clip-rule="evenodd" d="M2.752 38.27h17.55v20.837c0 .738-.598 1.337-1.337 1.337H2.752a1.337 1.337 0 01-1.337-1.337v-19.5c0-.739.599-1.337 1.337-1.337zm28.471 0h17.55c.738 0 1.337.598 1.337 1.337v19.5c0 .738-.599 1.337-1.337 1.337H32.56a1.337 1.337 0 01-1.337-1.337V38.27z" fill="#FF9500"/></g><path fill-rule="evenodd" clip-rule="evenodd" d="M20.061 12.809h11.551c5.529 0 10.01 4.482 10.01 10.01 0 5.529-4.481 10.011-10.01 10.011h-11.55c-5.53 0-10.011-4.482-10.011-10.01 0-5.53 4.482-10.011 10.01-10.011z" fill="#3D3D3D"/><path fill-rule="evenodd" clip-rule="evenodd" d="M31.612 32.831h-11.55c-5.1 0-9.31-3.814-9.932-8.745h31.414c-.622 4.931-4.832 8.745-9.932 8.745z" fill="#CAC9C9"/><path fill-rule="evenodd" clip-rule="evenodd" d="M25.957 16.652c6.846 0 12.396 5.55 12.396 12.397v9.276H13.56V29.05c0-6.847 5.55-12.397 12.397-12.397z" fill="#FFCBA3"/><path d="M35.485 15.762H17.378v2.953h18.107v-2.953z" fill="#3D3D3D"/><path fill-rule="evenodd" clip-rule="evenodd" d="M23.054 21.559a2.585 2.585 0 012.585 2.585v1.595a2.585 2.585 0 01-5.17 0v-1.595a2.585 2.585 0 012.585-2.585z" fill="#fff"/><path fill-rule="evenodd" clip-rule="evenodd" d="M23.761 23.07c.643 0 1.164.522 1.164 1.165v1.462a1.164 1.164 0 01-2.328 0v-1.462c0-.643.521-1.165 1.164-1.165z" fill="#3D3D3D"/><path d="M22.734 24.174a.853.853 0 100-1.705.853.853 0 000 1.705z" fill="#fff"/><path fill-rule="evenodd" clip-rule="evenodd" d="M29.177 21.559a2.585 2.585 0 00-2.586 2.585v1.595a2.585 2.585 0 105.17 0v-1.595a2.585 2.585 0 00-2.584-2.585z" fill="#fff"/><path fill-rule="evenodd" clip-rule="evenodd" d="M28.6 23.07c-.644 0-1.165.522-1.165 1.165v1.462a1.164 1.164 0 102.329 0v-1.462c0-.643-.522-1.165-1.165-1.165z" fill="#3D3D3D"/><path d="M27.757 24.174a.853.853 0 110-1.705.853.853 0 010 1.705z" fill="#fff"/><path fill-rule="evenodd" clip-rule="evenodd" d="M20.09 26.793c2.907.202 4.91.641 6.006 1.317 1.097.676.173 2.633-2.77 5.87l-4.918-4.221 1.681-2.966z" fill="#FFCBA3"/><path fill-rule="evenodd" clip-rule="evenodd" d="M32.55 26.96c-2.909.203-4.91.642-6.007 1.318-1.097.676-.174 2.633 2.77 5.87l4.918-4.221-1.682-2.966z" fill="#FFCBA3"/><path fill-rule="evenodd" clip-rule="evenodd" d="M26.125 29.297a1.26 1.26 0 001.253-1.267c0-.7-1.253-2.354-1.253-2.354S24.87 27.33 24.87 28.03c0 .7.561 1.267 1.254 1.267z" fill="#E89665"/><path d="M22.299 29.148c1.766 2.174 3.897 2.55 6.392 1.128" stroke="#E89665" stroke-width=".715" stroke-linecap="round" stroke-linejoin="round"/><path d="M23.868 33.867c1.393.892 2.786.892 4.179 0" stroke="#F7B286" stroke-width=".55" stroke-linecap="round" stroke-linejoin="round"/><path fill-rule="evenodd" clip-rule="evenodd" d="M19.523 25.568h6.322c1.005 0 .542-2.883-1.057-3.85-1.228-.741-3.554.262-3.793.262-.366 0-.857 1.196-1.473 3.588z" fill="#FFCBA3"/><path fill-rule="evenodd" clip-rule="evenodd" d="M25.428 25.566h6.322c1.006 0 .542-2.771-1.057-3.738-1.228-.742-3.554.261-3.792.261-.367 0-.858 1.16-1.473 3.477z" fill="#FFCBA3"/><path opacity=".626" d="M34.398 24.84l-2.005.836 2.005.891M17.405 24.84l2.006.836-2.006.891" stroke="#F3A577" stroke-width=".55" stroke-linecap="round" stroke-linejoin="round"/><path fill-rule="evenodd" clip-rule="evenodd" d="M14.112 16.43h2.463a2.613 2.613 0 012.613 2.612v2.464a2.613 2.613 0 01-2.613 2.612h-2.463a2.613 2.613 0 01-2.613-2.612v-2.464a2.613 2.613 0 012.613-2.612zm21.228-.278h2.128a2.613 2.613 0 012.613 2.613v2.742a2.613 2.613 0 01-2.613 2.612H35.34a2.613 2.613 0 01-2.612-2.612v-2.742a2.613 2.613 0 012.612-2.613z" fill="#3D3D3D"/><path d="M22.734 21.723c2.353-.688 4.601-.688 6.744 0" stroke="#3D3D3D" stroke-width="1.671" stroke-linecap="round" stroke-linejoin="round"/></g></svg>