<svg width="52" height="52" fill="none" xmlns="http://www.w3.org/2000/svg"><g clip-path="url(#clip0)"><circle cx="26" cy="26" r="26" fill="#B7F486"/><path fill-rule="evenodd" clip-rule="evenodd" d="M-2.123 23.37l-.004.007a1.416 1.416 0 00-.023 1.635l-.504-.154a1.418 1.418 0 00-1.761.913l-.01.034c-.227.74.18 1.52.911 1.76l.028.01v-.001l.964.294c-.502.196-.867.67-.9 1.24l-.001.038a1.416 1.416 0 001.338 1.464l.028.001 2.486.087c.072.028.145.053.22.076l.491.151a2.956 2.956 0 003.694-1.958l.017-.06c.14-.486.151-.98.054-1.442a1.425 1.425 0 00-.037-.23l-.772-3.093a1.417 1.417 0 00-1.69-1.038l-.035.008c-.523.13-.905.536-1.03 1.023l-1.484-1.078a1.418 1.418 0 00-1.98.314z" fill="#E18E70"/><path fill-rule="evenodd" clip-rule="evenodd" d="M25.7 41.752a1.939 1.939 0 01-2.648.71l-19.97-11.53a.197.197 0 01-.073-.27l1.742-3.016a.197.197 0 01.269-.072l19.97 11.53a1.939 1.939 0 01.71 2.648z" fill="#1CB0F6"/><path fill-rule="evenodd" clip-rule="evenodd" d="M49.995 39.406v.007a1.416 1.416 0 01-.942 1.336l.498.172a1.418 1.418 0 01.888 1.774l-.011.034a1.416 1.416 0 01-1.773.888l-.028-.01-.952-.328c.29.453.307 1.052-.001 1.531l-.02.032a1.416 1.416 0 01-1.945.398l-.023-.015-2.062-1.392a3.036 3.036 0 01-.222-.067l-.487-.167a2.956 2.956 0 01-1.837-3.755l.021-.058c.173-.476.454-.882.804-1.2.05-.057.105-.112.166-.163l2.442-2.049a1.417 1.417 0 011.978.154l.023.027c.346.413.417.965.232 1.433h1.834a1.418 1.418 0 011.417 1.418z" fill="#E18E70"/><path fill-rule="evenodd" clip-rule="evenodd" d="M16.683 37.922a1.939 1.939 0 001.726 2.13l22.934 2.41a.197.197 0 00.216-.175l.364-3.464a.197.197 0 00-.175-.216l-22.934-2.41a1.939 1.939 0 00-2.13 1.725z" fill="#1CB0F6"/><path fill-rule="evenodd" clip-rule="evenodd" d="M-.899 70.421c-1.476.874-3.035-.999-1.909-2.293L13.52 49.373a3.023 3.023 0 014.263-.297l7.052 6.131L-.899 70.421z" fill="#FFB7E3"/><path fill-rule="evenodd" clip-rule="evenodd" d="M27.911 78.652c.843 1.495 3.129.652 2.8-1.031l-4.76-24.406a3.023 3.023 0 00-3.544-2.389l-9.174 1.783 14.678 26.043z" fill="#FFB7E3"/><circle cx="18.72" cy="54.191" r="9.274" transform="rotate(15 18.72 54.19)" fill="#FFB7E3"/><path fill-rule="evenodd" clip-rule="evenodd" d="M21.483 34.815c1.448-1.587 4.085-.88 4.545 1.218l1.732 7.901c.425 1.94-1.355 3.64-3.273 3.126l-7.183-1.925c-1.918-.514-2.61-2.876-1.272-4.343l5.451-5.977z" fill="#1CB0F6"/><path fill="#FF86D0" d="M15.852 43.816l10.618 2.845-.463 1.725-10.617-2.845z"/><path fill-rule="evenodd" clip-rule="evenodd" d="M29.634 38.518a1.185 1.185 0 00-.878-1.098l-1.86-.499a1.185 1.185 0 00-1.485 1.017L24.69 44.6a1.185 1.185 0 00.871 1.272l2.853.764a1.185 1.185 0 001.49-1.19l-.27-6.928z" fill="#FFB7E3"/><path d="M36.193 25.328s-5.4-2.07-9.457 1.297" stroke="#E18E70" stroke-width="2.161"/><path d="M27.696 27.25s-2.59 2.193-3.5-.938" stroke="#9E4D31" stroke-width=".843" stroke-linecap="round"/><rect x="18.15" y="34.551" width="11.267" height="4.397" rx="2.196" transform="rotate(15 18.15 34.55)" fill="#FFB7E3"/><path fill="#FFB7E3" d="M17.867 44.359l1.393.373-.747 2.787-1.393-.373zm5.242 1.403l1.393.373-.747 2.787-1.393-.373z"/><rect x="16.334" y="2.203" width="31.088" height="32.761" rx="15.544" transform="rotate(15 16.334 2.203)" fill="#FFB7E3"/><mask id="a" mask-type="alpha" maskUnits="userSpaceOnUse" x="7" y="2" width="40" height="40"><rect x="16.334" y="2.203" width="31.088" height="32.761" rx="15.544" transform="rotate(15 16.334 2.203)" fill="#fff"/></mask><g mask="url(#a)"><path d="M36.597 28.706c-3.599 4.188-10.338 8.448-21.831 4.435" stroke="#FF9BD8" stroke-width="1.464" stroke-linecap="round" stroke-linejoin="round"/></g><path fill-rule="evenodd" clip-rule="evenodd" d="M15.296 18.408c1.768-6.6 8.553-10.517 15.153-8.749 6.6 1.769 10.517 8.553 8.748 15.153-1.768 6.6-8.552 10.517-15.153 8.749-6.6-1.769-10.517-8.553-8.748-15.153z" fill="#E18E70"/><mask id="b" mask-type="alpha" maskUnits="userSpaceOnUse" x="12" y="6" width="31" height="31"><path fill-rule="evenodd" clip-rule="evenodd" d="M15.296 18.408c1.768-6.6 8.553-10.517 15.153-8.749 6.6 1.769 10.517 8.553 8.748 15.153-1.768 6.6-8.552 10.517-15.153 8.749-6.6-1.769-10.517-8.553-8.748-15.153z" fill="#fff"/></mask><g mask="url(#b)"><path fill-rule="evenodd" clip-rule="evenodd" d="M31.233 25.207a51.35 51.35 0 011.866-.41 2.837 2.837 0 00.539-5.578c-1.803-.47-3.583-.084-5.097 1.061a2.836 2.836 0 002.015 5.084l-.005.008.053-.013a2.82 2.82 0 00.629-.152z" fill="#fff"/><path fill-rule="evenodd" clip-rule="evenodd" d="M28.847 21.357a1.882 1.882 0 013.636.974l-.235.875a1.882 1.882 0 11-3.636-.974l.235-.875z" fill="#3D3D3D"/><mask id="c" mask-type="alpha" maskUnits="userSpaceOnUse" x="28" y="19" width="5" height="7"><path fill-rule="evenodd" clip-rule="evenodd" d="M28.847 21.357a1.882 1.882 0 013.636.974l-.235.875a1.882 1.882 0 11-3.636-.974l.235-.875z" fill="#fff"/></mask><g mask="url(#c)"><ellipse cx="29.285" cy="20.195" rx="1.139" ry="1.142" transform="rotate(15 29.285 20.195)" fill="#fff"/></g><path fill-rule="evenodd" clip-rule="evenodd" d="M22.22 22.804c-.38-.359-.928-.867-1.441-1.315a2.826 2.826 0 01-.538-.472 2.836 2.836 0 012.876-4.617c1.796.495 3.145 1.719 3.884 3.467a2.836 2.836 0 01-4.288 3.395v.012l-.055-.053a2.82 2.82 0 01-.437-.417z" fill="#fff"/><path fill-rule="evenodd" clip-rule="evenodd" d="M26.286 20.673a1.882 1.882 0 00-3.636-.974l-.234.875a1.882 1.882 0 103.636.974l.234-.875z" fill="#3D3D3D"/><mask id="d" mask-type="alpha" maskUnits="userSpaceOnUse" x="21" y="17" width="6" height="7"><path fill-rule="evenodd" clip-rule="evenodd" d="M26.286 20.673a1.882 1.882 0 00-3.636-.974l-.234.875a1.882 1.882 0 103.636.974l.234-.875z" fill="#fff"/></mask><g mask="url(#d)"><ellipse rx="1.139" ry="1.142" transform="scale(-1 1) rotate(-15 59.082 98.864)" fill="#fff"/><path d="M35.775 25.152s-5.4-2.07-9.457 1.298" stroke="#E18E70" stroke-width="2.161"/></g><path fill-rule="evenodd" clip-rule="evenodd" d="M39.389 12.204c-1.744-.468-8.818 7.78-21.07 4.045-.877-.267-1.947-1.017-2.217-1.392-1.051-1.463 1.791-.324 2.796-3.841.505-1.768 2.3-3.686 2.3-3.686s7.313-.206 9.876.48c6.746 1.808 9.157 4.62 8.315 4.394z" fill="#3D3D3D"/></g><path d="M15.452 10.206l6.876 3.883c.362.21.416.713.104.994-1.494 1.35-3.72 1.59-5.508.554-1.788-1.035-2.693-3.088-2.275-5.06.087-.41.44-.581.803-.371z" fill="#3D3D3D"/><path fill-rule="evenodd" clip-rule="evenodd" d="M16.609 10.871c2.372 1.293 3.878.223 5.303-.416 1.425-.64 2.337 2.463 2.337 2.463l-3.67 1.457-3.989-1.92s-2.354-2.877.019-1.584z" fill="#3D3D3D"/><path d="M18.307 19.793s5.712.908 7.541 5.852m10.468-1.059s-5.4-2.07-9.457 1.297" stroke="#E18E70" stroke-width="2.552"/><path d="M20.181 22.59a2.747 2.747 0 013.558 1.572c.372.964.864 1.578 1.491 1.948.674.396 1.615.579 2.883.493a2.748 2.748 0 012.928 2.563 2.757 2.757 0 01-2.563 2.933c-4.738.32-8.248-1.746-9.87-5.945a2.758 2.758 0 011.573-3.564z" fill="#B23131"/><mask id="e" mask-type="alpha" maskUnits="userSpaceOnUse" x="16" y="21" width="17" height="13"><path d="M20.181 22.59a2.747 2.747 0 013.558 1.572c.372.964.864 1.578 1.491 1.948.674.396 1.615.579 2.883.493a2.748 2.748 0 012.928 2.563 2.757 2.757 0 01-2.563 2.933c-4.738.32-8.248-1.746-9.87-5.945a2.758 2.758 0 011.573-3.564z" fill="#fff"/></mask><g mask="url(#e)"><circle cx="20.652" cy="31.916" r="4.775" transform="rotate(-7 20.652 31.916)" fill="#E34545"/></g><ellipse cx="26.628" cy="24.187" rx="1.185" ry="1.673" transform="rotate(18 26.628 24.187)" fill="#9E4D31"/></g><defs><clipPath id="clip0"><rect width="52" height="52" rx="26" fill="#fff"/></clipPath></defs></svg>