<svg width="112" height="176" fill="none" xmlns="http://www.w3.org/2000/svg"><g clip-path="url(#clip0)"><g clip-path="url(#clip1)"><path d="M22.593 39.139l45.477-8.02 4.906 27.825-45.477 8.02-4.906-27.825z" fill="#F08E00"/><path d="M37.72 58.04c-4.784 6.502-13.934 7.893-20.436 3.108l-5.64-4.15C5.144 52.213 3.752 43.063 8.537 36.56l4.641-6.306c4.785-6.502 13.935-7.893 20.437-3.108l5.64 4.15c6.501 4.786 7.893 13.935 3.108 20.437L37.72 58.04zM64.738 53.063c6.72 4.473 15.794 2.651 20.267-4.069l3.88-5.829c4.473-6.72 2.651-15.794-4.069-20.267l-6.518-4.338c-6.72-4.474-15.794-2.652-20.267 4.068l-3.88 5.83c-4.473 6.72-2.651 15.794 4.069 20.267l6.518 4.338z" fill="#F08E00"/><path d="M25.599 26.694c-1.402-7.95 3.906-15.531 11.856-16.933L47.86 7.927c7.95-1.402 15.531 3.906 16.933 11.856l1.518 8.609c1.402 7.95-3.907 15.531-11.857 16.933L44.05 47.16c-7.95 1.402-15.532-3.906-16.933-11.856l-1.518-8.609z" fill="#F08E00"/><path d="M49.015 112.042l22.543-3.975 2.318 13.149-22.542 3.975-2.319-13.149z" fill="#FFB100"/><path d="M69.749 56.083c6.09-1.074 11.897 2.993 12.971 9.083l4.86 27.567c1.263 7.156-3.515 13.98-10.671 15.241l-31.978 5.639c-7.156 1.262-13.98-3.516-15.241-10.672l-4.861-27.567c-1.074-6.09 2.992-11.898 9.082-12.972l35.838-6.319z" fill="#F89700"/><path d="M38.365 80.538a7.484 7.484 0 0114.741-2.6l.81 4.593a7.485 7.485 0 01-14.741 2.599l-.81-4.592zM57.28 77.203a7.484 7.484 0 1114.742-2.6l.81 4.593a7.484 7.484 0 01-14.741 2.599l-.81-4.592z" fill="#FFD900"/><path d="M45.717 80.86a2.7 2.7 0 001.34-4.661A3.313 3.313 0 0151.5 78.72l.725 4.108a3.313 3.313 0 01-6.525 1.15l-.543-3.078c.184.007.372-.006.561-.04zM59.248 78.474a2.7 2.7 0 001.453-4.555 3.313 3.313 0 014.88 2.317l.725 4.108a3.313 3.313 0 11-6.525 1.15l-.533-3.02z" fill="#F08E00"/><path d="M54.817 89.958a2.447 2.447 0 104.82-.85c-.235-1.331-3.089-4.011-3.19-3.993-.1.017-1.865 3.512-1.63 4.843z" fill="#E27800"/><path d="M49.309 55.213c-.558-6.23 4.04-11.732 10.27-12.29l.285 3.182c.557 6.23-4.04 11.732-10.27 12.289l-.285-3.181z" fill="#FFB100"/><path d="M39.836 49.524c1.606 6.044 7.809 9.642 13.854 8.035l-.821-3.087c-1.607-6.044-7.81-9.642-13.854-8.035l.82 3.087z" fill="#FFB100"/><path d="M45.637 177.691a7.402 7.402 0 008.663-5.878l8.027-41.919a7.402 7.402 0 10-14.54-2.784l-8.028 41.919a7.402 7.402 0 005.878 8.662z" fill="#F89700"/><path d="M64.744 215.079a5.178 5.178 0 01-4.27 4.794l-11.288 1.99c-3.342.589-6.338-2.142-6.059-5.525l5.318-64.396a10.9 10.9 0 018.97-9.838l7-1.234a3.815 3.815 0 014.47 3.982l-4.141 70.227z" fill="#E27800"/><path d="M74.22 212.197a5.178 5.178 0 005.998 4.195l12.409-2.188a5.178 5.178 0 004.175-6.128l-12.434-61.322c-1.175-5.794-6.753-9.595-12.575-8.568l-5.27.929a5.178 5.178 0 00-4.2 6.003l11.898 67.079z" fill="#E27800"/><path d="M51.41 138.183l26.837-4.732.993 5.635-26.836 4.732-.994-5.635z" fill="#F08E00"/><path d="M46.244 133.992c-1.426-8.087 3.974-15.799 12.061-17.225l7.48-1.319c8.087-1.426 15.799 3.974 17.225 12.061a5.841 5.841 0 01-4.739 6.767l-25.26 4.454a5.841 5.841 0 01-6.767-4.738z" fill="#FFB100"/><path d="M53.766 90.829a2.52 2.52 0 012.044-2.919l2.205-.389a2.52 2.52 0 11.875 4.962l-2.205.39a2.52 2.52 0 01-2.919-2.044zM59.382 142.588l5.636-.994 2.555 14.492a2.452 2.452 0 01-1.99 2.841l-.805.142a2.453 2.453 0 01-2.84-1.989l-2.556-14.492z" fill="#E27800"/><path d="M18.816 62.222l33.632-5.93.582 3.296L25.558 80.93l-6.742-18.708z" fill="#FFB100"/><path d="M83.598 50.799l-33.632 5.93.581 3.297 33.114 10.659-.063-19.886z" fill="#FFB100"/><path d="M53.968 138.561l2.952-.52.852 4.83-2.953.521-.851-4.831zM67.386 136.195l2.952-.52 1.041 5.904-2.952.52-1.04-5.904z" fill="#E27800"/><path d="M54.28 92.468c-3.287-3.785-9.759-4.26-15.36-1.657l2.017 4.01c5.816.16 15.962.66 13.344-2.353z" fill="#F89700"/><path fill-rule="evenodd" clip-rule="evenodd" d="M48.277 94.062a1.213 1.213 0 011.704.194c1.124 1.412 3.402 3.173 7.587 2.435a1.213 1.213 0 11.421 2.388c-5.207.919-8.327-1.33-9.906-3.313a1.212 1.212 0 01.194-1.704z" fill="#E27800"/><path d="M33.382 86.159a6.676 6.676 0 11-13.15 2.318 6.676 6.676 0 0113.15-2.318zM96.565 125.561a7.402 7.402 0 00-6.707-8.038l-14.251-1.287a7.403 7.403 0 00-1.332 14.745l14.252 1.287a7.403 7.403 0 008.038-6.707z" fill="#F89700"/><path d="M93 118.847a7.34 7.34 0 00-10.03 2.679l-6.645 11.488a7.34 7.34 0 0012.707 7.35l6.646-11.488a7.34 7.34 0 00-2.679-10.029zM36.517 83.53c-1.046-5.928 2.913-11.582 8.842-12.627l16.101-2.84c5.929-1.044 11.582 2.914 12.628 8.843l.33 1.878-37.57 6.625-.331-1.879z" fill="#F89700"/><path d="M56.74 75.814a1.363 1.363 0 011.105-1.578l9.66-1.704a1.362 1.362 0 01.474 2.684l-9.661 1.703a1.363 1.363 0 01-1.579-1.105z" fill="#E27800"/><path fill-rule="evenodd" clip-rule="evenodd" d="M40.232 73.119c4.97-3.26 10.278-1.956 12.383-.86a1.227 1.227 0 01-1.133 2.175c-1.584-.825-5.898-1.892-9.905.736a1.226 1.226 0 01-1.345-2.051z" fill="#E27800"/><path d="M76.805 136.184a5.325 5.325 0 017.029-2.706l6.171 2.741a5.325 5.325 0 01-4.323 9.734l-6.17-2.741a5.325 5.325 0 01-2.707-7.028zM91.034 75.716a6.676 6.676 0 11-13.15 2.318 6.676 6.676 0 0113.15-2.318z" fill="#F89700"/><path d="M65.433 161.997a.682.682 0 01.237 1.342l-2.147.379a.681.681 0 01-.237-1.342l2.147-.379z" fill="#F08E00"/><path fill-rule="evenodd" clip-rule="evenodd" d="M81.968 127.146a.682.682 0 01-.414.87c-.773.274-1.527.805-2.167 1.388a9.567 9.567 0 00-1.368 1.528.68.68 0 11-1.122-.772c.303-.44.858-1.114 1.573-1.764.711-.647 1.619-1.306 2.628-1.664a.68.68 0 01.87.414z" fill="#E27800"/><path d="M67.268 169.962l-.236 9.365-2.286-16.465a.761.761 0 111.507-.209l1.015 7.309z" fill="#F08E00"/></g></g><defs><clipPath id="clip0"><path fill="#fff" d="M0 0h112v176H0z"/></clipPath><clipPath id="clip1"><path fill="#fff" transform="rotate(-10 107.434 167.125)" d="M0 0h121v222.378H0z"/></clipPath></defs></svg>