<svg width="112" height="193" fill="none" xmlns="http://www.w3.org/2000/svg"><g clip-path="url(#clip0)"><path fill-rule="evenodd" clip-rule="evenodd" d="M33.64 116.187l82.715-23.718a13.503 13.503 0 0114.317 4.608l9.737 12.322c5.685 7.194 4.461 17.634-2.733 23.319a16.6 16.6 0 01-5.717 2.932l-88.67 25.426c-8.813 2.527-18.006-2.569-20.534-11.382a16.602 16.602 0 01-.542-6.402l1.728-15.61a13.504 13.504 0 019.7-11.495z" fill="#FF4B4B"/><path fill-rule="evenodd" clip-rule="evenodd" d="M83.758 163.439a8.506 8.506 0 0110.522 5.832l5.605 19.549a8.506 8.506 0 01-5.832 10.521 8.506 8.506 0 01-10.522-5.832l-5.605-19.548a8.507 8.507 0 015.832-10.522z" fill="#FFC6B7"/><path fill-rule="evenodd" clip-rule="evenodd" d="M89.548 183.631a8.507 8.507 0 0110.522 5.832l3.675 12.817a8.506 8.506 0 01-5.833 10.521 8.506 8.506 0 01-10.521-5.832l-3.675-12.816a8.507 8.507 0 015.832-10.522z" fill="#FFC6B7"/><path fill-rule="evenodd" clip-rule="evenodd" d="M99.466 158.935a8.506 8.506 0 0110.521 5.832l5.606 19.548a8.507 8.507 0 01-16.354 4.69l-5.606-19.548a8.507 8.507 0 015.833-10.522z" fill="#FFC6B7"/><path fill-rule="evenodd" clip-rule="evenodd" d="M105.256 179.127a8.506 8.506 0 0110.521 5.832l3.675 12.817a8.507 8.507 0 01-16.354 4.689l-3.675-12.816a8.507 8.507 0 015.833-10.522z" fill="#FFC6B7"/><path fill-rule="evenodd" clip-rule="evenodd" d="M74.773 169.231l20.192-5.79a1.215 1.215 0 011.503.833l3.158 11.014a1.215 1.215 0 01-.833 1.503l-20.192 5.79a1.215 1.215 0 01-1.503-.833l-3.158-11.014a1.215 1.215 0 01.833-1.503z" fill="#D22121"/><path fill-rule="evenodd" clip-rule="evenodd" d="M90.459 164.733l20.192-5.79a1.215 1.215 0 011.503.833l3.158 11.014a1.215 1.215 0 01-.833 1.503l-20.192 5.79a1.215 1.215 0 01-1.504-.833l-3.158-11.014a1.215 1.215 0 01.834-1.503z" fill="#D22121"/><path fill-rule="evenodd" clip-rule="evenodd" d="M117.335 74.944l-95.11 27.272.332 1.103a14.97 14.97 0 007.214 8.73 14.97 14.97 0 0011.253 1.211l66.25-18.997a14.97 14.97 0 008.995-7.155 14.979 14.979 0 001.066-12.165z" fill="#FFB100" stroke="#FFB100" stroke-width="1.562" stroke-linejoin="round"/><path fill-rule="evenodd" clip-rule="evenodd" d="M29.523 30.324L73.58 17.691c7.742-2.22 15.817 2.257 18.037 9.998l14.977 52.233-72.09 20.672-14.978-52.233c-2.22-7.742 2.257-15.817 9.998-18.037z" fill="#FFB100"/><path d="M47.427 112.053l55.114-15.804c8.203-2.352 16.759 2.39 19.111 10.593.316 1.102.508 2.236.573 3.38l2.168 38.026a15.453 15.453 0 01-11.167 15.732l-38.968 11.174a15.451 15.451 0 01-17.807-7.424l-18.313-33.396c-4.102-7.482-1.363-16.874 6.119-20.977a15.46 15.46 0 013.17-1.304z" fill="#FF4B4B"/><path fill-rule="evenodd" clip-rule="evenodd" d="M123.806 137.957l.587 10.291a15.453 15.453 0 01-11.167 15.732l-38.968 11.174a15.451 15.451 0 01-17.806-7.424l-4.957-9.039 72.311-20.734z" fill="#D22121"/><path d="M36.302 38.848l34.877-10c7.281-2.088 14.876 2.121 16.964 9.402l16.365 57.072-61.244 17.561L26.9 55.812c-2.088-7.281 2.122-14.876 9.403-16.964z" fill="#FFC6B7"/><path fill-rule="evenodd" clip-rule="evenodd" d="M29.697 43.072c.45.64.803 1.365 1.03 2.16l2.824 9.846a7.205 7.205 0 01-4.362 8.72l-2.29-7.986a13.703 13.703 0 012.798-12.74zm60.71 3.076a7.207 7.207 0 01-7.627-5.186l-2.823-9.846a7.207 7.207 0 01-.281-1.965 13.696 13.696 0 018.467 9.1l2.264 7.897z" fill="#FFB100"/><path d="M49.744 68.065c.459-.332 1.1-.23 1.432.23 3.193 4.41 7.645 5.496 13.642 3.259a1.026 1.026 0 11.717 1.922c-6.822 2.545-12.258 1.219-16.02-3.98-.333-.458-.23-1.1.229-1.431z" fill="#F3A577"/><path fill-rule="evenodd" clip-rule="evenodd" d="M47.77 44.872a8.185 8.185 0 0110.124 5.612l1.373 4.786a8.185 8.185 0 01-15.737 4.513l-1.372-4.786a8.185 8.185 0 015.612-10.125zm18.522-5.311a8.185 8.185 0 0110.125 5.612l1.372 4.786a8.185 8.185 0 11-15.736 4.512l-1.373-4.786a8.185 8.185 0 015.612-10.124z" fill="#fff"/><path fill-rule="evenodd" clip-rule="evenodd" d="M51.282 48.925a3.675 3.675 0 014.546 2.52L57.1 55.88a3.675 3.675 0 11-7.065 2.026l-1.272-4.437a3.66 3.66 0 01-.058-.23 2.69 2.69 0 001.97-4.08c.192-.095.395-.174.608-.235zm14.172-4.115a3.675 3.675 0 014.545 2.519l1.272 4.436a3.675 3.675 0 01-7.065 2.026l-1.272-4.437a3.8 3.8 0 01-.058-.23 2.69 2.69 0 001.97-4.08c.192-.095.395-.174.608-.235z" fill="#3D3D3D"/><path fill-rule="evenodd" clip-rule="evenodd" d="M64.079 67.01a3.645 3.645 0 002.5-4.507c-.555-1.934-5.371-5.505-5.371-5.505l-.27.726c-.569 1.574-1.8 5.284-1.368 6.789a3.645 3.645 0 004.509 2.498z" fill="#F3A577"/><path d="M44.972 63.01c4.453-1.002 8.549-.185 12.164 2.428l.36.267-2 2.623c-2.82-2.15-5.916-2.87-9.41-2.183l-.39.083-.724-3.218zM28.885 73.13a7.03 7.03 0 10-3.876-13.517 7.03 7.03 0 003.876 13.517zm67.251-19.284a7.03 7.03 0 004.82-8.697 7.03 7.03 0 10-13.517 3.876 7.03 7.03 0 008.697 4.82z" fill="#FFC6B7"/><path fill-rule="evenodd" clip-rule="evenodd" d="M17.587 40.971L89.33 20.4a2.257 2.257 0 012.791 1.547l1.292 4.506a2.257 2.257 0 01-1.547 2.791L20.123 49.816a2.257 2.257 0 01-2.792-1.548l-1.291-4.505a2.257 2.257 0 011.547-2.792z" fill="#FF4B4B"/><path fill-rule="evenodd" clip-rule="evenodd" d="M46.91 7.821c8.295-2.378 16.947 2.418 19.326 10.712 2.378 8.295-2.418 16.947-10.713 19.326-8.294 2.378-16.947-2.418-19.325-10.712C33.819 18.852 38.615 10.2 46.91 7.82z" fill="#FFB100"/><path d="M32.291 16.307l18.84 11.526a1.728 1.728 0 01.2 2.786c-4.303 3.615-10.545 4.063-15.442.995-4.897-3.068-7.232-8.89-5.877-14.352.282-1.137 1.286-1.578 2.28-.955z" fill="#FFB100"/><path fill-rule="evenodd" clip-rule="evenodd" d="M40.063 105.504l63.581-18.23a1.91 1.91 0 012.362 1.308l1.818 6.342a1.91 1.91 0 01-1.309 2.362l-63.58 18.231a1.91 1.91 0 01-2.362-1.309l-1.819-6.342a1.91 1.91 0 011.31-2.362z" fill="#FF4B4B"/><path fill-rule="evenodd" clip-rule="evenodd" d="M70.172 96.504l4.506-1.292 15.077 52.579-4.506 1.292-15.077-52.58z" fill="#EBE3E3"/><path fill-rule="evenodd" clip-rule="evenodd" d="M70.389 96.442l4.071-1.168a1.389 1.389 0 011.591.65l5.9 10.408a1.39 1.39 0 01-.825 2.02l-9.46 2.713a1.39 1.39 0 01-1.77-1.276l-.512-11.953a1.389 1.389 0 011.005-1.394z" fill="#EBE3E3"/><path fill-rule="evenodd" clip-rule="evenodd" d="M53.237 122.571c5.887-1.688 12.027 1.715 13.715 7.602 1.688 5.886-1.716 12.027-7.602 13.714-5.887 1.688-12.027-1.715-13.715-7.602-1.688-5.886 1.716-12.026 7.602-13.714zm49.313-15.355c4.723-1.354 9.61.569 12.229 4.423.645.949-.23 15.206-6.116 16.894-5.887 1.688-12.027-1.715-13.715-7.602-1.688-5.886 1.716-12.027 7.602-13.715z" fill="#FFC6B7"/><path fill-rule="evenodd" clip-rule="evenodd" d="M42.05 135.937l68.312-19.588a5.901 5.901 0 017.299 4.046l3.503 12.216a5.901 5.901 0 01-4.046 7.299l-68.313 19.588a5.901 5.901 0 01-7.298-4.046l-3.503-12.216a5.902 5.902 0 014.046-7.299z" fill="#FF4B4B"/><path fill-rule="evenodd" clip-rule="evenodd" d="M95.87 116.094l7.942-6.005a7.871 7.871 0 0110.62 1.035 6.212 6.212 0 01-1.26 9.354l-.126.081a7.75 7.75 0 01-10.194-1.584c-1.218-1.481-2.166-2.32-2.843-2.515-1.292-.373-2.671-.495-4.138-.366z" fill="#FFC6B7"/><path fill-rule="evenodd" clip-rule="evenodd" d="M76.214 117.584l48.318-3.378c6.109-.427 11.408 4.178 11.835 10.287.427 6.109-4.179 11.407-10.288 11.834l-70.44 4.926c-.855-12.217 8.357-22.814 20.575-23.669z" fill="#FF4B4B"/><path fill-rule="evenodd" clip-rule="evenodd" d="M32.412 93.302c.38 1.324 1.36 4.81-2.46 5.906 2.116 1.141 3.231 1.586 3.345 1.335l1.514-1.455-.664-4.145c-1.41-1.977-1.988-2.524-1.735-1.641zm72.064-20.76l.151.508c.469 1.511 1.628 4.278 5.092 3.285l-.441.76c-.926 1.563-1.489 2.278-1.689 2.145l-2.055-.432-1.633-3.867.067-.938c.134-1.602.303-2.09.508-1.461z" fill="#FFB100"/></g><defs><clipPath id="clip0"><path fill="#fff" d="M0 0h112v193H0z"/></clipPath></defs></svg>