<svg width="112" height="172" fill="none" xmlns="http://www.w3.org/2000/svg"><g clip-path="url(#clip0)"><path fill-rule="evenodd" clip-rule="evenodd" d="M87.15 140.677a3.772 3.772 0 01.927-5.253l17.847-12.497a3.773 3.773 0 015.254.926l31.102 44.419a3.772 3.772 0 01-.926 5.254l-17.848 12.497a3.772 3.772 0 01-5.253-.926l-31.103-44.42z" fill="#E27800"/><circle cx="100.135" cy="48.197" transform="rotate(-9 100.135 48.197)" fill="#FFB100" r="7.162"/><rect x="78.147" y="3.826" width="48.257" height="70.742" rx="24.128" transform="rotate(81 78.147 3.826)" fill="#E27800"/><rect x="16.561" y="37.002" width="82.084" height="50.22" rx="24.6" transform="rotate(-9 16.561 37.002)" fill="#FFB100"/><path opacity=".689" fill-rule="evenodd" clip-rule="evenodd" d="M100.888 45.735c-9.501-.498-17.69-7.57-19.238-17.345l-.043-.27c9.105 1.663 16.733 8.408 19.281 17.615z" fill="#E27800"/><path fill-rule="evenodd" clip-rule="evenodd" d="M53.131 133.123l56.748-20.655 5.016 13.782-56.748 20.654-5.016-13.781z" fill="#D8D8D8"/><path fill-rule="evenodd" clip-rule="evenodd" d="M49.763 45.468a8.11 8.11 0 0116.02-2.537l.783 4.943a8.11 8.11 0 01-16.02 2.537l-.783-4.943z" fill="#E27800"/><path fill-rule="evenodd" clip-rule="evenodd" d="M50.224 48.37a8.11 8.11 0 1116.02-2.536l.783 4.942a8.11 8.11 0 11-16.02 2.537l-.783-4.942z" fill="#FFD900"/><path fill-rule="evenodd" clip-rule="evenodd" d="M53.695 48.316a3.653 3.653 0 017.215-1.143l.718 4.531a3.652 3.652 0 11-7.215 1.143l-.718-4.53zm31.056-8.386a8.11 8.11 0 10-16.02 2.537l.783 4.942a8.11 8.11 0 0016.02-2.537l-.783-4.943z" fill="#E27800"/><path fill-rule="evenodd" clip-rule="evenodd" d="M85.209 42.828a8.11 8.11 0 10-16.02 2.537l.782 4.942a8.11 8.11 0 0016.02-2.537l-.782-4.942z" fill="#FFD900"/><circle r="2.847" transform="scale(-1 1) rotate(9 -315.04 -340.731)" fill="#FFD900"/><path fill-rule="evenodd" clip-rule="evenodd" d="M71.805 45.657a2.933 2.933 0 002.393-3.586 3.654 3.654 0 013.297 3.069l.718 4.531a3.653 3.653 0 01-7.215 1.143l-.718-4.531a3.664 3.664 0 01-.038-.805 2.92 2.92 0 001.563.18z" fill="#E27800"/><path d="M71.408 62.094a3.463 3.463 0 002.949-3.91c-.266-1.894-4.326-5.891-4.326-5.891s-2.802 4.96-2.535 6.855a3.463 3.463 0 003.912 2.946z" fill="#F78F02"/><circle cx="79.433" cy="117.855" r="33.473" transform="rotate(-20 79.433 117.855)" fill="#FFD900"/><path fill-rule="evenodd" clip-rule="evenodd" d="M119.25 149.454a33.329 33.329 0 00-.496-21.434 33.332 33.332 0 00-14.25-17.266l-48.841 17.777a33.333 33.333 0 00.182 22.386 33.332 33.332 0 0013.398 16.739l50.007-18.202z" fill="#E27800"/><path fill-rule="evenodd" clip-rule="evenodd" d="M62.742 146.374a3.771 3.771 0 012.254-4.834l20.474-7.452a3.771 3.771 0 014.835 2.254l18.546 50.956a3.771 3.771 0 01-2.254 4.834l-20.474 7.452a3.772 3.772 0 01-4.835-2.254l-18.546-50.956z" fill="#E27800"/><path fill-rule="evenodd" clip-rule="evenodd" d="M51.463 78.892l24.569-8.942 5.325 14.63c2.47 6.785-1.029 14.286-7.813 16.756-6.785 2.469-14.286-1.029-16.756-7.814l-5.325-14.63z" fill="#FFB100"/><rect x="56.131" y="13.029" width="39.684" height="47.621" rx="19.131" transform="rotate(81 56.131 13.029)" fill="#E27800"/><rect x="125.322" y="145.673" width="54.523" height="17.944" rx="8.972" transform="rotate(-127 125.322 145.673)" fill="#F89700"/><path fill-rule="evenodd" clip-rule="evenodd" d="M44.602 137.585c-5.93-16.293-.548-33.946 12.135-44.354l25.67 70.53h-.002l7.78 21.375-22.52 8.196a2.608 2.608 0 01-3.342-1.559L44.62 137.638h.001l-.02-.053zm74.589-27.193c-5.93-16.292-21.4-26.355-37.805-26.176l25.671 70.53.007-.006 6.884 18.913a2.608 2.608 0 003.342 1.559l20.069-7.305a2.607 2.607 0 001.558-3.342l-19.704-54.135-.007.003a1.849 1.849 0 01-.015-.041z" fill="#F89700"/><circle cx="22.744" cy="60.455" transform="rotate(-9 22.744 60.455)" fill="#FFB100" r="7.162"/><circle cx="24.734" cy="67.831" transform="rotate(-9 24.734 67.831)" fill="#E27800" r="3.418"/><path fill-rule="evenodd" clip-rule="evenodd" d="M99.569 117.448c-5.93-16.294-13.345-29.29-18.513-33.2l12.866 35.346h-.001l20.595 56.586 3.225-1.174a2.607 2.607 0 001.558-3.342l-19.394-53.285-.336-.931z" fill="#FFD900"/><path fill-rule="evenodd" clip-rule="evenodd" d="M91.999 115.302l5.999-2.183 22.778 62.584-5.999 2.184-22.778-62.585z" fill="#E27800"/><path d="M66.973 67.785s-6.965 1.471-10.033-2.87" stroke="#F78F02" stroke-width="2.5" stroke-linecap="round" stroke-linejoin="round"/><path fill-rule="evenodd" clip-rule="evenodd" d="M74.703 142.655l-19.048 16.501 1.913 5.257c1.476 4.054 6.1 5.983 10.02 4.18l8.006-3.684a7.38 7.38 0 003.85-9.229l-4.74-13.025z" fill="#EB8400"/><rect width="53.833" height="17.944" rx="8.972" transform="scale(-1 1) rotate(-87 57.583 117.17)" fill="#F89700"/><rect width="34.336" height="17.944" rx="8.972" transform="scale(-1 1) rotate(-87 65.948 125.984)" fill="#FFB100"/><rect width="18.98" height="10.352" rx="5.176" transform="scale(-1 1) rotate(-42 181.953 176.02)" fill="#FFB100"/><path fill="#F89700" d="M61.913 158.548l-.542-10.338-17.92.94.542 10.337z"/><rect x="51.713" y="93.466" width="26.149" height="28.307" rx="13.075" transform="rotate(-50 51.713 93.466)" fill="#FFB100"/></g><defs><clipPath id="clip0"><path fill="#fff" d="M0 0h112v172H0z"/></clipPath></defs></svg>