<svg width="112" height="170" fill="none" xmlns="http://www.w3.org/2000/svg"><g clip-path="url(#clip0)"><path d="M53.93 29.802c6.953-2.53 10.55-10.186 8.034-17.098C59.448 5.79 51.772 2.239 44.819 4.769 37.867 7.3 34.27 14.955 36.786 21.868c2.516 6.912 10.192 10.465 17.145 7.934z" fill="#E27800"/><path d="M136.181 115.542l-89.718 32.654a7.87 7.87 0 005.383 14.789l89.718-32.655a7.869 7.869 0 10-5.383-14.788z" fill="#FFB100"/><path d="M117.275 85.074l-75.915 27.63c-10.618 3.865-16.093 15.605-12.228 26.223 3.864 10.618 15.605 16.093 26.222 12.228l75.915-27.631c10.618-3.864 16.093-15.605 12.228-26.222-3.864-10.618-15.605-16.093-26.222-12.228z" fill="#F89700"/><path fill-rule="evenodd" clip-rule="evenodd" d="M69.413 91.022l12.878-4.687c20.977-7.636 44.172 3.18 51.807 24.158l17.634 48.447a4.866 4.866 0 01-2.908 6.235l-79.701 29.009a4.865 4.865 0 01-6.235-2.908l-17.633-48.447c-7.636-20.977 3.18-44.172 24.158-51.807z" fill="#F89700"/><path fill-rule="evenodd" clip-rule="evenodd" d="M134.098 110.492l10.823 29.735-27.492 10.007a3.696 3.696 0 01-4.737-2.209L92.995 93.908l18.805-6.845c10.004 4.215 18.293 12.423 22.298 23.429zm-69.464-6.261l19.697 54.116a3.696 3.696 0 01-2.209 4.737l-26.045 9.48-10.823-29.735c-4.005-11.006-2.932-22.622 2.022-32.281l17.358-6.317z" fill="#E27800"/><path d="M87.714 124.551a3.8 3.8 0 10-2.6-7.143 3.8 3.8 0 002.6 7.143zm-7.779-26.463a8.238 8.238 0 10-15.482 5.635l1.904 5.231a8.238 8.238 0 0015.482-5.636l-1.904-5.23z" fill="#FFD900"/><path d="M92.81 93.4a8.238 8.238 0 00-15.482 5.636l1.904 5.231a8.237 8.237 0 0010.558 4.923 8.238 8.238 0 004.924-10.558L92.81 93.4z" fill="#FFD900"/><path fill-rule="evenodd" clip-rule="evenodd" d="M39.944 38.332l29.999-10.919c14.359-5.226 30.235 2.177 35.462 16.536 5.226 14.359-2.178 30.236-16.536 35.462l-30 10.918c-14.358 5.227-30.235-2.177-35.46-16.536-5.227-14.359 2.177-30.235 16.535-35.461z" fill="#E27800"/><path fill-rule="evenodd" clip-rule="evenodd" d="M88.868 79.408L58.87 90.327c-13.246 4.82-27.784-1.106-34.06-13.325l81.585-29.695c3.046 13.396-4.281 27.28-17.527 32.101z" fill="#EB8A00"/><path fill-rule="evenodd" clip-rule="evenodd" d="M58.887 42.74c17.78-6.47 37.441 2.697 43.913 20.478l8.769 24.092-64.39 23.436-8.77-24.092c-6.47-17.78 2.697-37.441 20.478-43.913z" fill="#FFB100"/><path d="M82.792 31.424L35.765 48.54l2.791 7.669 47.027-17.116-2.791-7.67z" fill="#E27800"/><path fill-rule="evenodd" clip-rule="evenodd" d="M55.982 58.22a7.145 7.145 0 019.157 4.27l1.508 4.143A7.145 7.145 0 0153.22 71.52l-1.508-4.143a7.145 7.145 0 014.27-9.157z" fill="#FFD900"/><path d="M81.038 56.703A7.145 7.145 0 0067.61 61.59l1.508 4.143a7.145 7.145 0 0013.428-4.888l-1.508-4.142z" fill="#FFD900"/><path fill-rule="evenodd" clip-rule="evenodd" d="M51.672 75.687c7.744-2.224 13.359-2.976 16.845-2.257 3.487.719 2.938 6.673-1.645 17.864l-16.763-6.316 1.563-9.29z" fill="#FFB100"/><path fill-rule="evenodd" clip-rule="evenodd" d="M71.275 75.432c1.798-.654 2.72-2.658 2.058-4.475-.661-1.817-5.481-4.93-5.481-4.93s-1.692 5.483-1.03 7.3c.661 1.817 2.655 2.76 4.453 2.105z" fill="#F78F02"/><path fill-rule="evenodd" clip-rule="evenodd" d="M59.247 61.483a3.218 3.218 0 014.125 1.924l1.382 3.798a3.218 3.218 0 11-6.048 2.2l-1.382-3.797-.065-.198a2.356 2.356 0 001.472-3.685c.162-.094.334-.175.516-.242zm12.571-4.573a3.218 3.218 0 014.125 1.923l1.382 3.798a3.218 3.218 0 01-6.048 2.2l-1.382-3.797a3.25 3.25 0 01-.1-.33 2.356 2.356 0 001.954-3.767l.07-.028z" fill="#E27800"/><path fill-rule="evenodd" clip-rule="evenodd" d="M49.885 70.007l16.42-5.977c2.612-.95-1.317-7.999-6.383-8.998-3.89-.767-8.983 4.038-9.603 4.264-.952.346-1.097 3.917-.434 10.71z" fill="#FFB100"/><path fill-rule="evenodd" clip-rule="evenodd" d="M64.86 63.438l16.42-5.977c2.612-.95-1.212-7.71-6.278-8.708-3.89-.767-8.983 4.038-9.603 4.263-.952.347-1.132 3.82-.539 10.422z" fill="#FFB100"/><path d="M62.208 57.087a16.788 16.788 0 0112.694-9.479 2.36 2.36 0 01.758 4.66l-.053.009a12.066 12.066 0 00-9.175 6.925l-.051.113-.307.691a2.361 2.361 0 01-1.29 1.239l-.06.022-12.464 4.536a2.36 2.36 0 01-1.664-4.417l.05-.019 11.522-4.194.04-.086z" fill="#E27800"/><path d="M88.035 55.477a.76.76 0 011.056 1.093l-.027.025-3.12 2.87 4.29.298a.76.76 0 01.708.774l-.002.037a.76.76 0 01-.774.707l-.036-.001-6.052-.42a.76.76 0 01-.489-1.292l.027-.025 4.419-4.066zm-43.581 15.86a.76.76 0 00-.106 1.516l.036.003 4.236.194-3.096 2.985a.76.76 0 00-.044 1.048l.025.027a.76.76 0 001.047.044l.028-.025 4.366-4.21a.76.76 0 00-.456-1.305l-.037-.002-6-.275z" fill="#F78F02"/><path fill-rule="evenodd" clip-rule="evenodd" d="M27.916 53.361l6.397-2.328a7.22 7.22 0 019.255 4.316l2.329 6.397a7.221 7.221 0 01-4.316 9.255l-6.397 2.328a7.22 7.22 0 01-9.255-4.315L23.6 62.617a7.22 7.22 0 014.316-9.256zm54.862-20.786l5.529-2.012a7.221 7.221 0 019.255 4.316l2.592 7.12a7.221 7.221 0 01-4.316 9.256l-5.53 2.012a7.22 7.22 0 01-9.254-4.316l-2.592-7.12a7.22 7.22 0 014.316-9.256z" fill="#E27800"/><path d="M56.625 80.304l21.449-.374c.098 5.602-4.365 10.224-9.968 10.321l-1.16.02c-5.602.099-10.223-4.364-10.321-9.967z" fill="#E27800"/><path fill-rule="evenodd" clip-rule="evenodd" d="M73.526 88.568a10.1 10.1 0 01-5.42 1.68l-1.16.02a10.128 10.128 0 01-8.02-3.707 9.613 9.613 0 013.157-1.894c4.338-1.579 9.074.151 11.443 3.901z" fill="#F78F02"/><path d="M61.994 94.88s5.912 2.585 10.737-1.701" stroke="#F78F02" stroke-width="1.431" stroke-linecap="round" stroke-linejoin="round"/></g><defs><clipPath id="clip0"><path fill="#fff" d="M0 0h112v170H0z"/></clipPath></defs></svg>